<svg width="24" height="22" viewBox="0 0 24 22" fill="none" xmlns="http://www.w3.org/2000/svg">
<g id="Award 2">
<g id="Vector">
<path d="M11.733 6.96244C11.822 6.67923 12.178 6.67923 12.267 6.96244C12.4996 7.70167 13.1766 8.22477 13.965 8.22477C14.0418 8.22477 14.091 8.24756 14.1277 8.27688C14.1695 8.3103 14.2093 8.3649 14.232 8.43717C14.2779 8.58312 14.2384 8.718 14.122 8.80537C13.4993 9.27267 13.2501 10.0877 13.4815 10.8233C13.5324 10.9852 13.4748 11.114 13.3714 11.1915C13.3185 11.2312 13.2633 11.2485 13.2174 11.2499C13.1777 11.2512 13.1245 11.2419 13.0574 11.1915C12.4286 10.7196 11.5714 10.7196 10.9426 11.1915C10.8755 11.2419 10.8223 11.2512 10.7826 11.2499C10.7367 11.2485 10.6815 11.2312 10.6286 11.1915C10.5252 11.114 10.4676 10.9852 10.5185 10.8233C10.7499 10.0877 10.5007 9.27267 9.87801 8.80537C9.76161 8.718 9.72208 8.58312 9.76798 8.43717C9.79072 8.3649 9.83046 8.3103 9.87229 8.27688C9.90898 8.24756 9.9582 8.22477 10.035 8.22477C10.8234 8.22477 11.5004 7.70167 11.733 6.96244Z" fill="#2D264B"/>
<path fill-rule="evenodd" clip-rule="evenodd" d="M8.22326 0.531458C9.09078 0.249584 10.132 0.249748 11.8383 0.250016H12.1619C13.8682 0.249748 14.9094 0.249584 15.777 0.531458C17.5275 1.10024 18.8999 2.47267 19.4687 4.22319L19.4773 4.25003H19.7695C23.475 4.25003 25.0668 8.95211 22.1233 11.203L22.1126 11.2112L19.6513 12.9576C19.5595 13.0227 19.4646 13.0832 19.3668 13.1388C19.3562 13.1667 19.3453 13.1945 19.3341 13.2224C19.0786 13.857 18.5799 14.6184 18.1003 15.1063C17.3187 15.9012 16.5098 16.2538 15.2181 16.8167L15.1323 16.8541C14.5759 17.0967 14.0134 17.3167 13.491 17.4772C13.2436 17.5532 12.9939 17.6196 12.7501 17.6678V20.25H16.0001C16.4143 20.25 16.7501 20.5858 16.7501 21C16.7501 21.4142 16.4143 21.75 16.0001 21.75H8.00011C7.58589 21.75 7.25011 21.4142 7.25011 21C7.25011 20.5858 7.58589 20.25 8.00011 20.25H11.2501V17.6678C11.0063 17.6196 10.7566 17.5532 10.5092 17.4772C9.98686 17.3167 9.42429 17.0967 8.86793 16.8541L8.78209 16.8167C7.49044 16.2538 6.68156 15.9012 5.89993 15.1063C5.42031 14.6184 4.92162 13.857 4.66613 13.2224C4.65462 13.1938 4.64341 13.1651 4.63249 13.1365C4.53679 13.0834 4.44402 13.025 4.35461 12.9615L1.8877 11.2112L1.87705 11.203C-1.06647 8.95211 0.525334 4.25003 4.23087 4.25003H4.52291L4.53153 4.22319C5.10031 2.47267 6.47274 1.10024 8.22326 0.531458ZM4.28317 5.75003H4.23087C1.96397 5.75003 0.987768 8.62126 2.77825 10.0038L4.27009 11.0623C4.24996 10.5801 4.25002 10.0411 4.2501 9.41602L4.2501 7.91608C4.25007 7.03687 4.25004 6.33514 4.28317 5.75003ZM19.7301 11.0624L21.2221 10.0038C23.0126 8.62126 22.0364 5.75003 19.7695 5.75003H19.717C19.7502 6.33508 19.7501 7.03691 19.7501 7.91599L19.7501 9.41695C19.7502 10.0416 19.7503 10.5804 19.7301 11.0624ZM13.6979 6.51236C13.1685 4.82925 10.8315 4.82925 10.3021 6.51236C10.258 6.65248 10.1417 6.72477 10.035 6.72477C8.25955 6.72477 7.63517 8.99754 8.97762 10.0051C9.07911 10.0812 9.13287 10.2295 9.08765 10.3733C8.82931 11.1946 9.16176 11.9661 9.72817 12.3912C10.2981 12.819 11.141 12.9181 11.843 12.3912C11.9383 12.3197 12.0617 12.3197 12.157 12.3912C12.859 12.9181 13.7019 12.819 14.2718 12.3912C14.8382 11.9661 15.1707 11.1946 14.9123 10.3733C14.8671 10.2295 14.9209 10.0812 15.0224 10.0051C16.3648 8.99754 15.7405 6.72477 13.965 6.72477C13.8583 6.72477 13.742 6.65248 13.6979 6.51236Z" fill="#2D264B"/>
</g>
</g>
</svg>
