<svg width="16" height="18" viewBox="0 0 16 18" fill="none" xmlns="http://www.w3.org/2000/svg">
<g id="Calender 1">
<g id="Vector">
<path d="M2.21756 3.12893C2.74558 2.74531 3.38215 2.54662 4.25 2.44372V3.1665C4.25 3.85686 4.80964 4.4165 5.5 4.4165C6.19036 4.4165 6.75 3.85686 6.75 3.1665V2.33551C7.13675 2.33317 7.55234 2.33317 8 2.33317C8.44766 2.33317 8.86325 2.33317 9.25 2.33551V3.1665C9.25 3.85686 9.80964 4.4165 10.5 4.4165C11.1904 4.4165 11.75 3.85686 11.75 3.1665V2.44372C12.6178 2.54662 13.2544 2.74531 13.7824 3.12893C14.1362 3.38593 14.4472 3.697 14.7042 4.05073C15.1745 4.69803 15.3669 5.50848 15.4456 6.70817H0.554447C0.63312 5.50848 0.825472 4.69803 1.29576 4.05073C1.55276 3.697 1.86383 3.38593 2.21756 3.12893Z" fill="#4C5254"/>
<path fill-rule="evenodd" clip-rule="evenodd" d="M0.508915 7.95799C0.5 8.51301 0.5 9.13398 0.5 9.83317C0.5 12.9579 0.5 14.5203 1.29576 15.6156C1.55276 15.9693 1.86383 16.2804 2.21756 16.5374C3.31283 17.3332 4.87522 17.3332 8 17.3332C8.69912 17.3332 9.32003 17.3332 9.875 17.3243L9.875 17.2658C9.87494 16.5558 9.87491 16.1233 9.93399 15.7503C10.2587 13.6999 11.8668 12.0919 13.9171 11.7672C14.2901 11.7081 14.7226 11.7081 15.4326 11.7082L15.4911 11.7082C15.5 11.1532 15.5 10.5323 15.5 9.83317C15.5 9.13397 15.5 8.513 15.4911 7.95798L15.4758 7.95817H0.524007L0.508915 7.95799ZM5.5 10.0415C5.15482 10.0415 4.875 10.3213 4.875 10.6665C4.875 11.0117 5.15482 11.2915 5.5 11.2915H10.5C10.8452 11.2915 11.125 11.0117 11.125 10.6665C11.125 10.3213 10.8452 10.0415 10.5 10.0415H5.5Z" fill="#4C5254"/>
<path d="M13.7824 16.5374C13.1351 17.0077 12.3247 17.2001 11.125 17.2787C11.1251 16.5201 11.1279 16.2028 11.1686 15.9458C11.4086 14.4303 12.5972 13.2418 14.1126 13.0018C14.3696 12.9611 14.6869 12.9583 15.4456 12.9582C15.3669 14.1579 15.1745 14.9683 14.7042 15.6156C14.4472 15.9693 14.1362 16.2804 13.7824 16.5374Z" fill="#4C5254"/>
<path d="M6.125 0.666504C6.125 0.321326 5.84518 0.0415039 5.5 0.0415039C5.15482 0.0415039 4.875 0.321326 4.875 0.666504V3.1665C4.875 3.51168 5.15482 3.7915 5.5 3.7915C5.84518 3.7915 6.125 3.51168 6.125 3.1665V0.666504Z" fill="#4C5254"/>
<path d="M11.125 0.666504C11.125 0.321326 10.8452 0.0415039 10.5 0.0415039C10.1548 0.0415039 9.875 0.321326 9.875 0.666504V3.1665C9.875 3.51168 10.1548 3.7915 10.5 3.7915C10.8452 3.7915 11.125 3.51168 11.125 3.1665V0.666504Z" fill="#4C5254"/>
</g>
</g>
</svg>
