<svg width="288" height="226" viewBox="0 0 288 226" fill="none" xmlns="http://www.w3.org/2000/svg">
<path d="M4 222L284 222" stroke="#466DF7" stroke-width="7.94026" stroke-linecap="round"/>
<path d="M142.487 45.1204C142.992 43.5155 145.008 43.5155 145.513 45.1204C146.831 49.3094 150.667 52.2736 155.135 52.2736C155.57 52.2736 155.849 52.4028 156.057 52.5689C156.294 52.7583 156.519 53.0677 156.648 53.4772C156.908 54.3043 156.684 55.0686 156.025 55.5637C152.496 58.2117 151.084 62.8305 152.395 66.9988C152.683 67.9158 152.357 68.6458 151.771 69.0853C151.472 69.3103 151.159 69.4081 150.898 69.4162C150.673 69.4232 150.372 69.3708 149.992 69.0853C146.429 66.411 141.571 66.411 138.008 69.0853C137.628 69.3708 137.327 69.4232 137.102 69.4162C136.841 69.4081 136.528 69.3103 136.229 69.0853C135.643 68.6458 135.317 67.9158 135.605 66.9988C136.916 62.8305 135.504 58.2117 131.975 55.5637C131.316 55.0686 131.092 54.3043 131.352 53.4772C131.481 53.0677 131.706 52.7583 131.943 52.5689C132.151 52.4028 132.43 52.2736 132.865 52.2736C137.333 52.2736 141.169 49.3094 142.487 45.1204Z" fill="#466DF7"/>
<path fill-rule="evenodd" clip-rule="evenodd" d="M122.598 8.67818C127.514 7.08089 133.415 7.08182 143.084 7.08334H144.918C154.587 7.08182 160.487 7.08089 165.403 8.67818C175.322 11.9013 183.099 19.6784 186.323 29.598L186.371 29.7501H188.027C209.025 29.7501 218.045 56.3952 201.365 69.1504L201.305 69.1966L187.358 79.0928C186.837 79.462 186.299 79.8047 185.745 80.1197C185.685 80.2778 185.623 80.4356 185.56 80.5933C184.112 84.1894 181.286 88.5044 178.568 91.2687C174.139 95.7736 169.555 97.7712 162.236 100.961L161.75 101.173C158.597 102.548 155.409 103.795 152.449 104.704C151.047 105.135 149.632 105.511 148.251 105.784V120.417H166.667C169.014 120.417 170.917 122.32 170.917 124.667C170.917 127.014 169.014 128.917 166.667 128.917H121.334C118.987 128.917 117.084 127.014 117.084 124.667C117.084 122.32 118.987 120.417 121.334 120.417H139.751V105.784C138.369 105.511 136.954 105.135 135.552 104.704C132.592 103.795 129.404 102.548 126.252 101.173L125.765 100.961C118.446 97.7712 113.862 95.7736 109.433 91.2687C106.715 88.5044 103.889 84.1894 102.441 80.5933C102.376 80.4312 102.313 80.269 102.251 80.1065C101.708 79.8056 101.183 79.4748 100.676 79.1153L86.697 69.1966L86.6366 69.1504C69.9567 56.3952 78.9769 29.7501 99.975 29.7501H101.63L101.679 29.598C104.902 19.6784 112.679 11.9013 122.598 8.67818ZM100.271 38.2501H99.975C87.1292 38.2501 81.5974 54.5204 91.7434 62.3549L100.197 68.3532C100.083 65.6206 100.083 62.566 100.084 59.024L100.084 50.5244C100.084 45.5422 100.084 41.5657 100.271 38.2501ZM187.804 68.3537L196.259 62.3549C206.405 54.5204 200.873 38.2501 188.027 38.2501H187.73C187.918 41.5654 187.917 45.5424 187.917 50.5239L187.917 59.0293C187.918 62.5692 187.918 65.6222 187.804 68.3537ZM153.622 42.57C150.622 33.0324 137.378 33.0324 134.378 42.57C134.129 43.364 133.47 43.7736 132.865 43.7736C122.804 43.7736 119.266 56.6527 126.873 62.362C127.448 62.7936 127.753 63.6338 127.497 64.4484C126.033 69.1026 127.917 73.4747 131.126 75.8836C134.356 78.3075 139.132 78.869 143.11 75.8836C143.65 75.4782 144.35 75.4782 144.89 75.8836C148.868 78.869 153.644 78.3075 156.874 75.8836C160.083 73.4747 161.967 69.1026 160.503 64.4484C160.247 63.6338 160.552 62.7936 161.127 62.362C168.734 56.6527 165.196 43.7736 155.135 43.7736C154.53 43.7736 153.871 43.364 153.622 42.57Z" fill="#466DF7"/>
<path d="M64.124 198.552C61.3293 198.552 59.164 197.741 57.628 196.12C56.1133 194.52 55.356 192.291 55.356 189.432V182.872H60.092V189.304C60.092 190.755 60.4227 191.832 61.084 192.536C61.7453 193.261 62.78 193.624 64.188 193.624H65.468C66.8547 193.624 67.932 193.283 68.7 192.6C69.468 191.917 69.852 190.947 69.852 189.688V179.672H74.556V189.304C74.556 191.181 74.1827 192.813 73.436 194.2C72.6893 195.608 71.6227 196.685 70.236 197.432C68.8707 198.179 67.2813 198.552 65.468 198.552H64.124ZM61.564 179.608V175.64H66.492V179.608H61.564ZM78.5182 170.424H83.2543V191H78.5182V170.424ZM93.1715 184.536C93.1715 185.069 93.2995 185.464 93.5555 185.72C93.8115 185.955 94.2168 186.072 94.7715 186.072H95.5715C95.7848 186.072 95.8915 186.904 95.8915 188.568C95.8915 190.189 95.7848 191 95.5715 191H95.0275C94.1955 191 93.5662 190.819 93.1395 190.456C93.0328 192.013 92.6168 193.4 91.8915 194.616C91.1875 195.853 90.1955 196.813 88.9155 197.496C87.6568 198.2 86.1742 198.552 84.4675 198.552H81.4595L81.0755 193.624H84.2755C85.6195 193.624 86.6435 193.283 87.3475 192.6C88.0728 191.939 88.4355 190.968 88.4355 189.688V179.672H93.1715V184.536ZM103.243 186.072C103.648 186.072 103.979 185.955 104.235 185.72C104.512 185.485 104.651 185.176 104.651 184.792V179.672H109.291V185.016C109.291 186.872 108.736 188.333 107.627 189.4C106.539 190.467 105.067 191 103.211 191H95.5625C95.3492 191 95.2425 190.189 95.2425 188.568C95.2425 186.904 95.3492 186.072 95.5625 186.072H103.243ZM105.099 193.912V197.88H95.8825V193.912H105.099ZM113.268 170.424H118.004V191H113.268V170.424ZM136.484 189.624C136.484 191.373 136.121 192.92 135.396 194.264C134.692 195.629 133.679 196.685 132.356 197.432C131.055 198.179 129.529 198.552 127.78 198.552H126.564L126.18 193.624H127.588C128.932 193.624 129.956 193.283 130.66 192.6C131.385 191.939 131.748 190.968 131.748 189.688V179.672H136.484V189.624ZM152.52 180.568C153.352 181.549 153.928 182.435 154.248 183.224C154.568 184.013 154.728 184.835 154.728 185.688C154.728 187.267 154.184 188.547 153.096 189.528C152.008 190.509 150.504 191 148.584 191H139.88L139.496 186.072H147.976C148.466 186.072 148.85 185.987 149.128 185.816C149.426 185.645 149.576 185.411 149.576 185.112C149.576 184.877 149.512 184.653 149.384 184.44C149.277 184.205 149.064 183.896 148.744 183.512L143.496 177.336L146.952 173.912L152.52 180.568ZM184.025 184.728C184.025 185.624 184.505 186.072 185.465 186.072H186.425C186.638 186.072 186.745 186.904 186.745 188.568C186.745 190.189 186.638 191 186.425 191H185.593C184.867 191 184.323 190.883 183.961 190.648C183.854 192.184 183.406 193.549 182.617 194.744C181.849 195.939 180.803 196.867 179.481 197.528C178.158 198.211 176.643 198.552 174.937 198.552H173.593C170.798 198.552 168.633 197.741 167.097 196.12C165.582 194.52 164.825 192.291 164.825 189.432V182.872H169.561V189.304C169.561 190.755 169.891 191.832 170.553 192.536C171.214 193.261 172.249 193.624 173.657 193.624H174.937C176.323 193.624 177.401 193.283 178.169 192.6C178.937 191.917 179.321 190.947 179.321 189.688V179.672H184.025V184.728ZM171.033 179.608V175.64H175.961V179.608H171.033ZM192.102 186.072C192.55 186.072 192.902 185.965 193.158 185.752C193.414 185.517 193.542 185.197 193.542 184.792V179.672H198.246V184.696C198.246 185.613 198.715 186.072 199.654 186.072H200.71C200.923 186.072 201.03 186.893 201.03 188.536C201.03 190.179 200.923 191 200.71 191H199.43C197.723 191 196.518 190.531 195.814 189.592C195.408 190.083 194.907 190.445 194.31 190.68C193.734 190.893 192.998 191 192.102 191H186.438C186.224 191 186.117 190.189 186.117 188.568C186.117 186.904 186.224 186.072 186.438 186.072H192.102ZM194.885 193.912V197.88H185.669V193.912H194.885ZM201.903 186.072C202.329 186.072 202.671 185.955 202.927 185.72C203.183 185.485 203.311 185.155 203.311 184.728V170.424H208.047V185.016C208.047 186.893 207.503 188.365 206.415 189.432C205.348 190.477 203.887 191 202.031 191H200.719C200.505 191 200.399 190.189 200.399 188.568C200.399 186.904 200.505 186.072 200.719 186.072H201.903ZM225.164 189.528C225.164 192.344 224.418 194.552 222.924 196.152C221.431 197.752 219.383 198.552 216.78 198.552H212.268L211.884 193.688H217.324C218.327 193.688 219.106 193.443 219.66 192.952C220.236 192.483 220.524 191.832 220.524 191H218.732C216.364 191 214.668 190.509 213.644 189.528C212.642 188.525 212.14 186.936 212.14 184.76C212.14 183.395 212.407 182.179 212.94 181.112C213.495 180.024 214.263 179.181 215.244 178.584C216.247 177.965 217.388 177.656 218.668 177.656C220.695 177.656 222.284 178.307 223.436 179.608C224.588 180.888 225.164 182.68 225.164 184.984V189.528ZM216.748 184.536C216.748 185.155 216.898 185.603 217.196 185.88C217.516 186.136 218.06 186.264 218.828 186.264H220.588V184.792C220.588 183.96 220.407 183.331 220.044 182.904C219.703 182.477 219.212 182.264 218.572 182.264C217.975 182.264 217.516 182.477 217.196 182.904C216.898 183.309 216.748 183.853 216.748 184.536ZM229.143 170.424H233.879V191H229.143V170.424Z" fill="#466DF7"/>
</svg>
