<svg width="288" height="215" viewBox="0 0 288 215" fill="none" xmlns="http://www.w3.org/2000/svg">
<path d="M4 211H284" stroke="#F75B46" stroke-width="8" stroke-linecap="round"/>
<path d="M140.809 1.86514C142.909 0.815439 145.462 1.66639 146.511 3.7658L146.81 4.36404C149.004 8.75118 149.004 13.9151 146.81 18.3022L146.511 18.9004C145.462 20.9999 142.909 21.8508 140.809 20.8011C138.71 19.7514 137.859 17.1985 138.909 15.0991L139.208 14.5009C140.205 12.5067 140.205 10.1595 139.208 8.16536L138.909 7.56711C137.859 5.46771 138.71 2.91485 140.809 1.86514Z" fill="#F75B46"/>
<path d="M186.143 1.86514C188.242 0.815439 190.795 1.6664 191.845 3.76581L192.144 4.36405C194.337 8.75118 194.337 13.9151 192.144 18.3022L191.845 18.9005C190.795 20.9999 188.242 21.8508 186.143 20.8011C184.043 19.7514 183.192 17.1985 184.242 15.0991L184.541 14.5009C185.538 12.5067 185.538 10.1595 184.541 8.16536L184.242 7.56711C183.192 5.4677 184.043 2.91484 186.143 1.86514Z" fill="#F75B46"/>
<path d="M167.277 1.86515C169.377 2.91485 170.228 5.46771 169.178 7.56712L168.879 8.16537C167.882 10.1595 167.882 12.5067 168.879 14.5009L169.178 15.0991C170.228 17.1985 169.377 19.7514 167.277 20.8011C165.178 21.8508 162.625 20.9999 161.575 18.9004L161.276 18.3022C159.083 13.9151 159.083 8.75119 161.276 4.36405L161.575 3.7658C162.625 1.66639 165.178 0.815439 167.277 1.86515Z" fill="#F75B46"/>
<path fill-rule="evenodd" clip-rule="evenodd" d="M166.342 24.083C176.281 24.0815 182.321 24.0806 187.156 25.6212C199.048 29.4105 207.73 39.6595 209.513 52.0122C209.807 54.0533 209.819 56.1866 209.637 58.581C219.165 60.6806 226.293 69.1744 226.293 79.3331C226.293 91.0692 216.779 100.583 205.043 100.583C204.352 100.583 203.669 100.55 202.993 100.485L202.503 103.428C201.886 107.132 201.509 109.394 200.912 111.379C197.208 123.704 186.596 132.693 173.83 134.321C171.774 134.583 169.481 134.583 165.726 134.583H165.028C161.273 134.583 158.979 134.583 156.924 134.321C144.157 132.693 133.546 123.704 129.841 111.379C129.245 109.394 128.868 107.132 128.251 103.428L123.145 72.7963C121.51 62.9925 120.516 57.0345 121.241 52.0122C123.023 39.6595 131.706 29.4105 143.597 25.6212C145.363 25.0585 147.237 24.7098 149.33 24.4894V50.9998H147.913C144.784 50.9998 142.247 53.5369 142.247 56.6665V67.9998C142.247 71.1294 144.784 73.6665 147.913 73.6665H159.247C162.376 73.6665 164.913 71.1294 164.913 67.9998V56.6665C164.913 53.5369 162.376 50.9998 159.247 50.9998H157.83L157.83 24.1075C160.029 24.0831 162.503 24.0831 165.3 24.0831L166.342 24.083ZM204.396 92.0671C204.61 92.0777 204.826 92.0831 205.043 92.0831C212.085 92.0831 217.793 86.3747 217.793 79.3331C217.793 73.506 213.884 68.5919 208.545 67.0701C208.233 69.0476 207.867 71.24 207.46 73.6836L204.396 92.0671Z" fill="#F75B46"/>
<path d="M21.222 183.452C21.222 182.705 20.774 182.332 19.878 182.332H13.766V175.868C13.766 173.905 14.3313 172.326 15.462 171.132C16.614 169.937 18.1607 169.34 20.102 169.34H24.742L25.03 174.108H20.166C19.6753 174.108 19.27 174.268 18.95 174.588C18.63 174.886 18.47 175.302 18.47 175.836V177.468H20.646C22.502 177.468 23.846 177.937 24.678 178.876C25.51 179.814 25.926 181.158 25.926 182.908C25.926 184.38 25.5313 185.724 24.742 186.94C23.974 188.177 22.8967 189.158 21.51 189.884C20.1233 190.609 18.566 190.972 16.838 190.972H14.374C11.5793 190.972 9.414 190.161 7.878 188.54C6.36333 186.94 5.606 184.71 5.606 181.852V175.292H10.342V181.724C10.342 183.174 10.6727 184.252 11.334 184.956C11.9953 185.681 13.03 186.044 14.438 186.044H16.966C18.374 186.044 19.43 185.809 20.134 185.34C20.8593 184.87 21.222 184.241 21.222 183.452ZM28.088 186.044C29.432 186.044 30.456 185.702 31.16 185.02C31.8853 184.358 32.248 183.388 32.248 182.108V172.092H36.984V176.956C36.984 177.489 37.112 177.884 37.368 178.14C37.624 178.374 38.0293 178.492 38.584 178.492H39.384C39.5973 178.492 39.704 179.324 39.704 180.988C39.704 182.609 39.5973 183.42 39.384 183.42H38.84C38.008 183.42 37.3787 183.238 36.952 182.876C36.8453 184.433 36.4293 185.82 35.704 187.036C35 188.273 34.008 189.233 32.728 189.916C31.4693 190.62 29.9867 190.972 28.28 190.972H27.064L26.68 186.044H28.088ZM48.463 177.436C48.463 179.292 47.9083 180.753 46.799 181.82C45.711 182.886 44.239 183.42 42.383 183.42H39.375C39.1617 183.42 39.055 182.609 39.055 180.988C39.055 179.324 39.1617 178.492 39.375 178.492H42.383C42.8097 178.492 43.151 178.374 43.407 178.14C43.6843 177.905 43.823 177.596 43.823 177.212V172.092H48.463V177.436ZM39.471 190.3V186.332H44.399V190.3H39.471ZM58.3903 182.044C58.3903 183.793 58.0276 185.34 57.3023 186.684C56.5983 188.049 55.5849 189.105 54.2623 189.852C52.9609 190.598 51.4356 190.972 49.6863 190.972H48.4703L48.0862 186.044H49.4943C50.8383 186.044 51.8623 185.702 52.5663 185.02C53.2916 184.358 53.6543 183.388 53.6543 182.108V172.092H58.3903V182.044ZM69.37 178.492C69.4767 178.492 69.5513 178.641 69.594 178.94C69.658 179.238 69.69 179.921 69.69 180.988C69.69 182.012 69.658 182.673 69.594 182.972C69.5513 183.27 69.4767 183.42 69.37 183.42H68.09C66.2127 183.42 64.7833 182.886 63.802 181.82C62.842 180.753 62.362 179.228 62.362 177.244V162.844H67.098V176.892C67.098 177.446 67.2047 177.852 67.418 178.108C67.6313 178.364 67.9727 178.492 68.442 178.492H69.37ZM77.471 178.492C77.983 178.492 78.3777 178.406 78.655 178.236C78.9323 178.065 79.071 177.83 79.071 177.532C79.071 177.254 78.9963 176.998 78.847 176.764C78.719 176.508 78.5057 176.23 78.207 175.932L71.551 169.436V165.724L83.967 161.02L85.215 165.628L77.535 168.54L81.759 172.764C82.6337 173.617 83.2523 174.46 83.615 175.292C83.9777 176.124 84.159 177.02 84.159 177.98C84.159 179.665 83.5937 180.998 82.463 181.98C81.3537 182.94 79.8283 183.42 77.887 183.42H69.375C69.1617 183.42 69.055 182.609 69.055 180.988C69.055 179.324 69.1617 178.492 69.375 178.492H77.471ZM101.001 172.252C102.515 170.417 104.275 169.5 106.281 169.5C107.518 169.5 108.606 169.788 109.545 170.364C110.505 170.94 111.251 171.75 111.785 172.796C112.318 173.82 112.585 175.004 112.585 176.348C112.585 177.116 112.489 177.756 112.297 178.268C112.595 178.417 113.171 178.492 114.025 178.492H114.825C115.038 178.492 115.145 179.324 115.145 180.988C115.145 182.609 115.038 183.42 114.825 183.42H114.025C113.086 183.42 112.286 183.324 111.625 183.132C110.985 182.94 110.398 182.598 109.865 182.108C108.649 182.982 107.166 183.42 105.417 183.42H94.5048L94.1208 178.492H96.2648V162.844H101.001V172.252ZM105.481 178.556C106.249 178.556 106.846 178.364 107.273 177.98C107.699 177.574 107.913 177.03 107.913 176.348C107.913 175.729 107.721 175.217 107.337 174.812C106.974 174.406 106.494 174.204 105.897 174.204C105.193 174.204 104.425 174.566 103.593 175.292C102.782 175.996 101.843 177.084 100.777 178.556H105.481ZM123.901 177.436C123.901 179.292 123.346 180.753 122.237 181.82C121.149 182.886 119.677 183.42 117.821 183.42H114.812C114.599 183.42 114.492 182.609 114.492 180.988C114.492 179.324 114.599 178.492 114.812 178.492H117.821C118.247 178.492 118.589 178.374 118.845 178.14C119.122 177.905 119.261 177.596 119.261 177.212V172.092H123.901V177.436ZM114.909 190.3V186.332H119.837V190.3H114.909ZM127.862 162.844H132.598V183.42H127.862V162.844ZM142.515 182.044C142.515 183.793 142.153 185.34 141.427 186.684C140.723 188.049 139.71 189.105 138.387 189.852C137.086 190.598 135.561 190.972 133.811 190.972H130.803L130.419 186.044H133.619C134.963 186.044 135.987 185.702 136.691 185.02C137.417 184.358 137.779 183.388 137.779 182.108V172.092H142.515V182.044ZM171.806 177.148C171.806 178.044 172.286 178.492 173.246 178.492H174.206C174.419 178.492 174.526 179.324 174.526 180.988C174.526 182.609 174.419 183.42 174.206 183.42H173.374C172.649 183.42 172.105 183.302 171.742 183.068C171.635 184.604 171.187 185.969 170.398 187.164C169.63 188.358 168.585 189.286 167.262 189.948C165.939 190.63 164.425 190.972 162.718 190.972H161.374C158.579 190.972 156.414 190.161 154.878 188.54C153.363 186.94 152.606 184.71 152.606 181.852V175.292H157.342V181.724C157.342 183.174 157.673 184.252 158.334 184.956C158.995 185.681 160.03 186.044 161.438 186.044H162.718C164.105 186.044 165.182 185.702 165.95 185.02C166.718 184.337 167.102 183.366 167.102 182.108V172.092H171.806V177.148ZM158.814 172.028V168.06H163.742V172.028H158.814ZM181.899 178.492C182.304 178.492 182.635 178.374 182.891 178.14C183.168 177.905 183.307 177.596 183.307 177.212V172.092H187.947V177.436C187.947 179.292 187.392 180.753 186.283 181.82C185.195 182.886 183.723 183.42 181.867 183.42H174.219C174.005 183.42 173.899 182.609 173.899 180.988C173.899 179.324 174.005 178.492 174.219 178.492H181.899ZM183.755 186.332V190.3H174.539V186.332H183.755ZM188.588 186.044C189.932 186.044 190.956 185.702 191.66 185.02C192.385 184.358 192.748 183.388 192.748 182.108V172.092H197.484V176.956C197.484 177.489 197.612 177.884 197.868 178.14C198.124 178.374 198.529 178.492 199.084 178.492H199.884C200.097 178.492 200.204 179.324 200.204 180.988C200.204 182.609 200.097 183.42 199.884 183.42H199.34C198.508 183.42 197.879 183.238 197.452 182.876C197.345 184.433 196.929 185.82 196.204 187.036C195.5 188.273 194.508 189.233 193.228 189.916C191.969 190.62 190.487 190.972 188.78 190.972H187.564L187.18 186.044H188.588ZM208.963 177.436C208.963 179.292 208.408 180.753 207.299 181.82C206.211 182.886 204.739 183.42 202.883 183.42H199.875C199.662 183.42 199.555 182.609 199.555 180.988C199.555 179.324 199.662 178.492 199.875 178.492H202.883C203.31 178.492 203.651 178.374 203.907 178.14C204.184 177.905 204.323 177.596 204.323 177.212V172.092H208.963V177.436ZM209.699 165.244V169.212H200.483V165.244H209.699ZM219.044 177.628C219.044 176.518 219.321 175.42 219.876 174.332C220.43 173.222 221.316 172.038 222.532 170.78L221.156 169.372L224.516 165.916C226.692 167.836 228.345 169.457 229.476 170.78C230.606 172.081 231.374 173.222 231.78 174.204C232.206 175.185 232.42 176.22 232.42 177.308C232.42 178.545 232.132 179.654 231.556 180.636C230.98 181.617 230.158 182.385 229.092 182.94C228.046 183.473 226.841 183.74 225.476 183.74C223.513 183.74 221.945 183.185 220.772 182.076C219.62 180.945 219.044 179.462 219.044 177.628ZM227.844 177.18C227.844 176.604 227.684 176.06 227.364 175.548C227.065 175.014 226.521 174.417 225.732 173.756C225.006 174.417 224.473 175.036 224.132 175.612C223.812 176.166 223.652 176.721 223.652 177.276C223.652 177.745 223.833 178.14 224.196 178.46C224.558 178.78 225.038 178.94 225.635 178.94C226.297 178.94 226.83 178.78 227.236 178.46C227.641 178.118 227.844 177.692 227.844 177.18ZM248.457 172.988C249.289 173.969 249.865 174.854 250.185 175.644C250.505 176.433 250.665 177.254 250.665 178.108C250.665 179.686 250.121 180.966 249.033 181.948C247.945 182.929 246.441 183.42 244.521 183.42H235.817L235.433 178.492H243.913C244.404 178.492 244.788 178.406 245.065 178.236C245.364 178.065 245.513 177.83 245.513 177.532C245.513 177.297 245.449 177.073 245.321 176.86C245.215 176.625 245.001 176.316 244.681 175.932L239.433 169.756L242.889 166.332L248.457 172.988ZM261.651 178.492C261.758 178.492 261.833 178.641 261.875 178.94C261.939 179.238 261.971 179.921 261.971 180.988C261.971 182.012 261.939 182.673 261.875 182.972C261.833 183.27 261.758 183.42 261.651 183.42H260.371C258.494 183.42 257.065 182.886 256.083 181.82C255.123 180.753 254.643 179.228 254.643 177.244V162.844H259.379V176.892C259.379 177.446 259.486 177.852 259.699 178.108C259.913 178.364 260.254 178.492 260.723 178.492H261.651ZM263.896 178.492C265.048 178.492 265.624 178.001 265.624 177.02V172.092H270.264V177.02C270.264 178.001 270.83 178.492 271.96 178.492C272.515 178.492 272.931 178.364 273.208 178.108C273.486 177.852 273.624 177.489 273.624 177.02V172.092H278.296V177.02C278.296 178.001 278.819 178.492 279.864 178.492C280.398 178.492 280.792 178.364 281.048 178.108C281.326 177.852 281.464 177.489 281.464 177.02V172.092H286.104V177.148C286.104 179.089 285.55 180.625 284.44 181.756C283.331 182.865 281.795 183.42 279.832 183.42C277.87 183.42 276.536 182.918 275.832 181.916C275.427 182.428 274.915 182.812 274.296 183.068C273.678 183.302 272.888 183.42 271.928 183.42C270.883 183.42 270.03 183.302 269.368 183.068C268.707 182.812 268.195 182.428 267.832 181.916C267.427 182.428 266.904 182.812 266.264 183.068C265.646 183.302 264.856 183.42 263.896 183.42H261.656C261.443 183.42 261.336 182.609 261.336 180.988C261.336 179.324 261.443 178.492 261.656 178.492H263.896Z" fill="#F75B46"/>
</svg>
