<svg width="295" height="222" viewBox="0 0 295 222" fill="none" xmlns="http://www.w3.org/2000/svg">
<path d="M5 217L285 217" stroke="#E8B229" stroke-width="8.28699" stroke-linecap="round"/>
<path d="M111.047 22.5371L127.915 74.3357C127.956 74.4635 128.003 74.5879 128.056 74.7089V86.1334C128.056 88.4806 129.958 90.3834 132.306 90.3834C134.653 90.3834 136.556 88.4806 136.556 86.1334V20.2964C138.23 19.5533 140.05 19.1278 141.97 18.8696C145.341 18.4165 149.586 18.4166 154.678 18.4168L180.787 18.4168C197.044 18.4168 210.222 31.5954 210.222 47.852C210.222 52.5651 207.52 56.8606 203.271 58.9001L200.509 60.2258C193.986 63.3566 193.986 72.6436 200.509 75.7744L203.271 77.1C207.52 79.1396 210.222 83.4351 210.222 88.1482C210.222 104.405 197.044 117.583 180.787 117.583H132.315C134.658 117.578 136.556 115.677 136.556 113.333V106.533C136.556 104.186 134.653 102.283 132.306 102.283C129.958 102.283 128.056 104.186 128.056 106.533V113.333C128.056 115.676 129.951 117.576 132.292 117.583L114.646 117.583C104.769 117.583 95.6492 112.287 90.7551 103.706L89.6934 101.845C89.2312 101.035 88.875 100.168 88.6335 99.2672C87.5492 95.2206 88.8817 90.9107 92.0606 88.182L95.0354 85.6286C100.525 80.9164 98.1217 71.9458 91.0111 70.6098L88.0004 70.0441C83.3683 69.1738 79.6457 65.7242 78.4259 61.1717C74.2184 45.469 83.537 29.3286 99.2397 25.1211L99.4577 25.0627C103.261 24.0436 106.434 23.1932 109.07 22.7765C109.735 22.6714 110.393 22.5887 111.047 22.5371Z" fill="#E8B229"/>
<path d="M13.5615 199.25C10.7668 199.25 8.6015 198.439 7.0655 196.818C5.55083 195.218 4.7935 192.988 4.7935 190.13V183.57H9.5295V190.002C9.5295 191.452 9.86017 192.53 10.5215 193.234C11.1828 193.959 12.2175 194.322 13.6255 194.322H14.9055C16.2922 194.322 17.3695 193.98 18.1375 193.298C18.9055 192.615 19.2895 191.644 19.2895 190.386V180.37H23.9935V190.002C23.9935 191.879 23.6202 193.511 22.8735 194.898C22.1268 196.306 21.0602 197.383 19.6735 198.13C18.3082 198.876 16.7188 199.25 14.9055 199.25H13.5615ZM11.0015 180.306V176.338H15.9295V180.306H11.0015ZM27.9557 171.122H32.6918V191.698H27.9557V171.122ZM42.609 185.234C42.609 185.767 42.737 186.162 42.993 186.418C43.249 186.652 43.6543 186.77 44.209 186.77H45.009C45.2223 186.77 45.329 187.602 45.329 189.266C45.329 190.887 45.2223 191.698 45.009 191.698H44.465C43.633 191.698 43.0037 191.516 42.577 191.154C42.4703 192.711 42.0543 194.098 41.329 195.314C40.625 196.551 39.633 197.511 38.353 198.194C37.0943 198.898 35.6117 199.25 33.905 199.25H30.897L30.513 194.322H33.713C35.057 194.322 36.081 193.98 36.785 193.298C37.5103 192.636 37.873 191.666 37.873 190.386V180.37H42.609V185.234ZM52.68 186.77C53.0853 186.77 53.416 186.652 53.672 186.418C53.9493 186.183 54.088 185.874 54.088 185.49V180.37H58.728V185.714C58.728 187.57 58.1733 189.031 57.064 190.098C55.976 191.164 54.504 191.698 52.648 191.698H45C44.7867 191.698 44.68 190.887 44.68 189.266C44.68 187.602 44.7867 186.77 45 186.77H52.68ZM54.536 194.61V198.578H45.32V194.61H54.536ZM62.7057 171.122H67.4418V191.698H62.7057V171.122ZM85.9215 190.322C85.9215 192.071 85.5588 193.618 84.8335 194.962C84.1295 196.327 83.1162 197.383 81.7935 198.13C80.4922 198.876 78.9668 199.25 77.2175 199.25H76.0015L75.6175 194.322H77.0255C78.3695 194.322 79.3935 193.98 80.0975 193.298C80.8228 192.636 81.1855 191.666 81.1855 190.386V180.37H85.9215V190.322ZM101.957 181.266C102.789 182.247 103.365 183.132 103.685 183.922C104.005 184.711 104.165 185.532 104.165 186.386C104.165 187.964 103.621 189.244 102.533 190.226C101.445 191.207 99.9413 191.698 98.0213 191.698H89.3173L88.9333 186.77H97.4133C97.9039 186.77 98.2879 186.684 98.5653 186.514C98.8639 186.343 99.0133 186.108 99.0133 185.81C99.0133 185.575 98.9493 185.351 98.8213 185.138C98.7146 184.903 98.5013 184.594 98.1813 184.21L92.9333 178.034L96.3893 174.61L101.957 181.266ZM126.582 181.266C127.414 182.247 127.99 183.132 128.31 183.922C128.63 184.711 128.79 185.532 128.79 186.386C128.79 187.964 128.246 189.244 127.158 190.226C126.07 191.207 124.566 191.698 122.646 191.698H113.942L113.558 186.77H122.038C122.529 186.77 122.913 186.684 123.19 186.514C123.489 186.343 123.638 186.108 123.638 185.81C123.638 185.575 123.574 185.351 123.446 185.138C123.34 184.903 123.126 184.594 122.806 184.21L117.558 178.034L121.014 174.61L126.582 181.266ZM138.328 185.234C138.328 185.767 138.456 186.162 138.712 186.418C138.968 186.652 139.373 186.77 139.928 186.77H140.728C140.941 186.77 141.048 187.602 141.048 189.266C141.048 190.887 140.941 191.698 140.728 191.698H140.184C139.352 191.698 138.722 191.516 138.296 191.154C138.189 192.711 137.773 194.098 137.048 195.314C136.344 196.551 135.352 197.511 134.072 198.194C132.813 198.898 131.33 199.25 129.624 199.25H126.616L126.232 194.322H129.432C130.776 194.322 131.8 193.98 132.504 193.298C133.229 192.636 133.592 191.666 133.592 190.386V180.37H138.328V185.234ZM133.4 177.49V173.522H138.328V177.49H133.4ZM141.647 186.77C142.095 186.77 142.425 186.674 142.639 186.482C142.852 186.29 142.959 185.97 142.959 185.522V184.818C142.959 182.727 143.556 181.074 144.751 179.858C145.945 178.642 147.567 178.034 149.615 178.034C151.663 178.034 153.241 178.631 154.351 179.826C155.46 180.999 156.015 182.684 156.015 184.882C156.015 187.015 155.428 188.69 154.255 189.906C153.103 191.1 151.492 191.698 149.423 191.698C148.463 191.698 147.641 191.57 146.959 191.314C146.276 191.058 145.764 190.716 145.423 190.29C145.017 190.78 144.505 191.143 143.887 191.378C143.289 191.591 142.543 191.698 141.647 191.698H140.719C140.505 191.698 140.399 190.887 140.399 189.266C140.399 187.602 140.505 186.77 140.719 186.77H141.647ZM151.439 184.882C151.439 183.431 150.777 182.706 149.455 182.706C148.153 182.706 147.503 183.431 147.503 184.882C147.503 185.522 147.663 186.023 147.983 186.386C148.324 186.727 148.815 186.898 149.455 186.898C150.137 186.898 150.639 186.738 150.959 186.418C151.279 186.076 151.439 185.564 151.439 184.882ZM165.547 190.322C165.547 192.071 165.184 193.618 164.459 194.962C163.755 196.327 162.741 197.383 161.419 198.13C160.117 198.876 158.592 199.25 156.843 199.25H153.834L153.451 194.322H156.651C157.995 194.322 159.019 193.98 159.723 193.298C160.448 192.636 160.811 191.666 160.811 190.386V180.37H165.547V190.322ZM176.526 186.77C176.633 186.77 176.708 186.919 176.75 187.218C176.814 187.516 176.846 188.199 176.846 189.266C176.846 190.29 176.814 190.951 176.75 191.25C176.708 191.548 176.633 191.698 176.526 191.698H175.246C173.369 191.698 171.94 191.164 170.958 190.098C169.998 189.031 169.518 187.506 169.518 185.522V171.122H174.254V185.17C174.254 185.724 174.361 186.13 174.574 186.386C174.788 186.642 175.129 186.77 175.598 186.77H176.526ZM184.627 186.77C185.139 186.77 185.534 186.684 185.811 186.514C186.089 186.343 186.227 186.108 186.227 185.81C186.227 185.532 186.153 185.276 186.003 185.042C185.875 184.786 185.662 184.508 185.363 184.21L178.707 177.714V174.002L191.123 169.298L192.371 173.906L184.691 176.818L188.915 181.042C189.79 181.895 190.409 182.738 190.771 183.57C191.134 184.402 191.315 185.298 191.315 186.258C191.315 187.943 190.75 189.276 189.619 190.258C188.51 191.218 186.985 191.698 185.043 191.698H176.531C176.318 191.698 176.211 190.887 176.211 189.266C176.211 187.602 176.318 186.77 176.531 186.77H184.627ZM221.181 185.426C221.181 186.322 221.661 186.77 222.621 186.77H223.581C223.794 186.77 223.901 187.602 223.901 189.266C223.901 190.887 223.794 191.698 223.581 191.698H222.749C222.024 191.698 221.48 191.58 221.117 191.346C221.01 192.882 220.562 194.247 219.773 195.442C219.005 196.636 217.96 197.564 216.637 198.226C215.314 198.908 213.8 199.25 212.093 199.25H210.749C207.954 199.25 205.789 198.439 204.253 196.818C202.738 195.218 201.981 192.988 201.981 190.13V183.57H206.717V190.002C206.717 191.452 207.048 192.53 207.709 193.234C208.37 193.959 209.405 194.322 210.813 194.322H212.093C213.48 194.322 214.557 193.98 215.325 193.298C216.093 192.615 216.477 191.644 216.477 190.386V180.37H221.181V185.426ZM208.189 180.306V176.338H213.117V180.306H208.189ZM231.274 186.77C231.679 186.77 232.01 186.652 232.266 186.418C232.543 186.183 232.682 185.874 232.682 185.49V180.37H237.322V185.714C237.322 187.57 236.767 189.031 235.658 190.098C234.57 191.164 233.098 191.698 231.242 191.698H223.594C223.38 191.698 223.274 190.887 223.274 189.266C223.274 187.602 223.38 186.77 223.594 186.77H231.274ZM233.13 194.61V198.578H223.914V194.61H233.13ZM237.963 194.322C239.307 194.322 240.331 193.98 241.035 193.298C241.76 192.636 242.123 191.666 242.123 190.386V180.37H246.859V185.234C246.859 185.767 246.987 186.162 247.243 186.418C247.499 186.652 247.904 186.77 248.459 186.77H249.259C249.472 186.77 249.579 187.602 249.579 189.266C249.579 190.887 249.472 191.698 249.259 191.698H248.715C247.883 191.698 247.254 191.516 246.827 191.154C246.72 192.711 246.304 194.098 245.579 195.314C244.875 196.551 243.883 197.511 242.603 198.194C241.344 198.898 239.862 199.25 238.155 199.25H236.939L236.555 194.322H237.963ZM252.642 186.77C253.09 186.77 253.442 186.663 253.698 186.45C253.954 186.215 254.082 185.895 254.082 185.49V180.37H258.786V185.394C258.786 186.311 259.266 186.77 260.226 186.77H261.25C261.463 186.77 261.57 187.591 261.57 189.234C261.57 190.876 261.463 191.698 261.25 191.698H260.002C258.253 191.698 257.047 191.228 256.386 190.29C255.981 190.78 255.479 191.143 254.882 191.378C254.285 191.591 253.538 191.698 252.642 191.698H249.25C249.037 191.698 248.93 190.887 248.93 189.266C248.93 187.602 249.037 186.77 249.25 186.77H252.642ZM258.946 173.522V177.49H249.73V173.522H258.946ZM262.178 186.77C262.626 186.77 262.957 186.674 263.17 186.482C263.383 186.29 263.49 185.97 263.49 185.522V184.818C263.49 182.727 264.087 181.074 265.282 179.858C266.477 178.642 268.098 178.034 270.146 178.034C272.194 178.034 273.773 178.631 274.882 179.826C275.991 180.999 276.546 182.684 276.546 184.882V185.33C276.546 185.842 276.653 186.215 276.866 186.45C277.101 186.663 277.431 186.77 277.858 186.77H278.786C278.999 186.77 279.106 187.602 279.106 189.266C279.106 190.887 278.999 191.698 278.786 191.698H277.922C276.151 191.698 274.925 191.239 274.242 190.322C273.261 191.239 271.831 191.698 269.954 191.698C268.994 191.698 268.173 191.57 267.49 191.314C266.807 191.058 266.295 190.716 265.954 190.29C265.549 190.78 265.037 191.143 264.418 191.378C263.821 191.591 263.074 191.698 262.178 191.698H261.25C261.037 191.698 260.93 190.887 260.93 189.266C260.93 187.602 261.037 186.77 261.25 186.77H262.178ZM271.97 184.882C271.97 183.431 271.309 182.706 269.986 182.706C268.685 182.706 268.034 183.431 268.034 184.882C268.034 185.522 268.194 186.023 268.514 186.386C268.855 186.727 269.346 186.898 269.986 186.898C270.669 186.898 271.17 186.738 271.49 186.418C271.81 186.076 271.97 185.564 271.97 184.882ZM286.877 186.77C287.389 186.77 287.784 186.684 288.061 186.514C288.339 186.343 288.477 186.108 288.477 185.81C288.477 185.532 288.403 185.276 288.253 185.042C288.125 184.786 287.912 184.508 287.613 184.21L280.957 177.714V174.002L293.373 169.298L294.621 173.906L286.941 176.818L291.165 181.042C292.04 181.895 292.659 182.738 293.021 183.57C293.384 184.402 293.565 185.298 293.565 186.258C293.565 187.943 293 189.276 291.869 190.258C290.76 191.218 289.235 191.698 287.293 191.698H278.781C278.568 191.698 278.461 190.887 278.461 189.266C278.461 187.602 278.568 186.77 278.781 186.77H286.877Z" fill="#E8B229"/>
</svg>
