<svg width="290" height="221" viewBox="0 0 290 221" fill="none" xmlns="http://www.w3.org/2000/svg">
<path d="M5 215.794L285 215.794" stroke="#2ECC3E" stroke-width="8.45802" stroke-linecap="round"/>
<path d="M136.917 56.6666C136.917 52.7546 140.088 49.5833 144 49.5833C147.912 49.5833 151.083 52.7546 151.083 56.6666C151.083 60.5786 147.912 63.7499 144 63.7499C140.088 63.7499 136.917 60.5786 136.917 56.6666Z" fill="#2ECC3E"/>
<path fill-rule="evenodd" clip-rule="evenodd" d="M114.371 22.9027C114.371 14.1659 121.453 7.08325 130.19 7.08325H159.464C167.288 7.08325 173.631 13.4259 173.631 21.2499C173.631 24.3795 176.168 26.9166 179.298 26.9166H182.637C191.618 26.9166 199.517 33.8865 199.151 43.4384C198.682 55.6844 196.303 75.3275 186.764 92.7111C184.179 97.4232 180.726 102.052 176.993 106.365L176.711 106.69C171.341 112.895 166.864 118.068 162.05 121.595C156.873 125.388 151.347 127.277 144.001 127.277C136.655 127.277 131.129 125.388 125.952 121.595C121.138 118.068 116.66 112.895 111.29 106.69L111.009 106.365C107.276 102.052 103.823 97.4232 101.237 92.7111C92.0055 75.8869 89.4744 58.1257 88.8991 46.73C88.4146 37.132 96.3701 30.2221 105.301 30.2221H107.051C111.094 30.2221 114.371 26.9451 114.371 22.9027ZM144 41.0833C135.394 41.0833 128.417 48.0601 128.417 56.6666C128.417 63.7997 133.209 69.8134 139.75 71.6633V90.6666C139.75 93.0138 141.653 94.9166 144 94.9166C146.347 94.9166 148.25 93.0138 148.25 90.6666V71.6633C154.791 69.8134 159.583 63.7997 159.583 56.6666C159.583 48.0602 152.607 41.0833 144 41.0833Z" fill="#2ECC3E"/>
<path d="M52.0575 176.892C52.1642 176.892 52.2388 177.041 52.2815 177.34C52.3455 177.639 52.3775 178.321 52.3775 179.388C52.3775 180.412 52.3455 181.073 52.2815 181.372C52.2388 181.671 52.1642 181.82 52.0575 181.82H50.7775C48.9002 181.82 47.4708 181.287 46.4895 180.22C45.5295 179.153 45.0495 177.628 45.0495 175.644V161.244H49.7855V175.292C49.7855 175.847 49.8922 176.252 50.1055 176.508C50.3188 176.764 50.6602 176.892 51.1295 176.892H52.0575ZM72.4145 171.612C73.1612 172.423 73.6945 173.212 74.0145 173.98C74.3558 174.748 74.5265 175.548 74.5265 176.38C74.5265 178.001 73.9718 179.313 72.8625 180.316C71.7745 181.319 70.2812 181.82 68.3825 181.82H64.6705C63.4545 181.82 62.5478 181.788 61.9505 181.724C61.3745 181.66 60.8625 181.511 60.4145 181.276C59.9238 181.489 59.3265 181.639 58.6225 181.724C57.9398 181.788 57.0438 181.82 55.9345 181.82H52.0625C51.8492 181.82 51.7425 181.009 51.7425 179.388C51.7425 177.724 51.8492 176.892 52.0625 176.892H55.0385C54.8038 176.593 54.6118 176.188 54.4625 175.676C54.3132 175.164 54.2385 174.652 54.2385 174.14C54.2385 172.967 54.5265 171.889 55.1025 170.908C55.6785 169.927 56.4678 169.159 57.4705 168.604C58.4732 168.028 59.5825 167.74 60.7985 167.74C61.4812 167.74 62.1532 167.857 62.8145 168.092L62.6545 167.932L65.8865 164.604L72.4145 171.612ZM68.1585 176.892C69.2252 176.892 69.7585 176.561 69.7585 175.9C69.7585 175.644 69.6945 175.399 69.5665 175.164C69.4385 174.929 69.1825 174.62 68.7985 174.236L66.5585 171.932C66.7505 172.508 66.8465 173.116 66.8465 173.756C66.8465 174.353 66.7398 174.94 66.5265 175.516C66.3345 176.071 66.0678 176.529 65.7265 176.892H68.1585ZM60.4465 176.956C61.8332 176.252 62.5265 175.335 62.5265 174.204C62.5265 173.649 62.3452 173.191 61.9825 172.828C61.6198 172.465 61.1398 172.284 60.5425 172.284C59.9452 172.284 59.4652 172.465 59.1025 172.828C58.7612 173.191 58.5905 173.649 58.5905 174.204C58.5905 175.377 59.2092 176.295 60.4465 176.956ZM84.0465 180.444C84.0465 182.193 83.6838 183.74 82.9585 185.084C82.2545 186.449 81.2412 187.505 79.9185 188.252C78.6172 188.999 77.0918 189.372 75.3425 189.372H72.3345L71.9505 184.444H75.1505C76.4945 184.444 77.5185 184.103 78.2225 183.42C78.9478 182.759 79.3105 181.788 79.3105 180.508V170.492H84.0465V180.444ZM88.0182 161.244H92.7543V181.82H88.0182V161.244ZM102.672 180.444C102.672 182.193 102.309 183.74 101.584 185.084C100.88 186.449 99.8662 187.505 98.5435 188.252C97.2422 188.999 95.7168 189.372 93.9675 189.372H90.9595L90.5755 184.444H93.7755C95.1195 184.444 96.1435 184.103 96.8475 183.42C97.5728 182.759 97.9355 181.788 97.9355 180.508V170.492H102.672V180.444ZM97.7435 167.612V163.644H102.672V167.612H97.7435ZM113.651 176.892C113.758 176.892 113.833 177.041 113.875 177.34C113.939 177.639 113.971 178.321 113.971 179.388C113.971 180.412 113.939 181.073 113.875 181.372C113.833 181.671 113.758 181.82 113.651 181.82H112.371C110.494 181.82 109.065 181.287 108.083 180.22C107.123 179.153 106.643 177.628 106.643 175.644V161.244H111.379V175.292C111.379 175.847 111.486 176.252 111.699 176.508C111.913 176.764 112.254 176.892 112.723 176.892H113.651ZM122.744 175.836C122.744 177.692 122.19 179.153 121.08 180.22C119.992 181.287 118.52 181.82 116.664 181.82H113.656C113.443 181.82 113.336 181.009 113.336 179.388C113.336 177.724 113.443 176.892 113.656 176.892H116.664C117.091 176.892 117.432 176.775 117.688 176.54C117.966 176.305 118.104 175.996 118.104 175.612V170.492H122.744V175.836ZM113.752 188.7V184.732H118.68V188.7H113.752ZM152.025 175.548C152.025 176.444 152.505 176.892 153.465 176.892H154.425C154.638 176.892 154.745 177.724 154.745 179.388C154.745 181.009 154.638 181.82 154.425 181.82H153.593C152.867 181.82 152.323 181.703 151.961 181.468C151.854 183.004 151.406 184.369 150.617 185.564C149.849 186.759 148.803 187.687 147.481 188.348C146.158 189.031 144.643 189.372 142.937 189.372H141.593C138.798 189.372 136.633 188.561 135.097 186.94C133.582 185.34 132.825 183.111 132.825 180.252V173.692H137.561V180.124C137.561 181.575 137.891 182.652 138.553 183.356C139.214 184.081 140.249 184.444 141.657 184.444H142.937C144.323 184.444 145.401 184.103 146.169 183.42C146.937 182.737 147.321 181.767 147.321 180.508V170.492H152.025V175.548ZM139.033 170.428V166.46H143.961V170.428H139.033ZM162.118 176.892C162.523 176.892 162.854 176.775 163.11 176.54C163.387 176.305 163.526 175.996 163.526 175.612V170.492H168.166V175.836C168.166 177.692 167.611 179.153 166.502 180.22C165.414 181.287 163.942 181.82 162.086 181.82H154.438C154.224 181.82 154.117 181.009 154.117 179.388C154.117 177.724 154.224 176.892 154.438 176.892H162.118ZM163.974 184.732V188.7H154.758V184.732H163.974ZM168.807 184.444C170.151 184.444 171.175 184.103 171.879 183.42C172.604 182.759 172.967 181.788 172.967 180.508V170.492H177.703V175.356C177.703 175.889 177.831 176.284 178.087 176.54C178.343 176.775 178.748 176.892 179.303 176.892H180.103C180.316 176.892 180.423 177.724 180.423 179.388C180.423 181.009 180.316 181.82 180.103 181.82H179.559C178.727 181.82 178.097 181.639 177.671 181.276C177.564 182.833 177.148 184.22 176.423 185.436C175.719 186.673 174.727 187.633 173.447 188.316C172.188 189.02 170.705 189.372 168.999 189.372H167.783L167.399 184.444H168.807ZM189.182 175.836C189.182 177.692 188.627 179.153 187.518 180.22C186.43 181.287 184.958 181.82 183.102 181.82H180.094C179.88 181.82 179.774 181.009 179.774 179.388C179.774 177.724 179.88 176.892 180.094 176.892H183.102C183.528 176.892 183.87 176.775 184.126 176.54C184.403 176.305 184.542 175.996 184.542 175.612V170.492H189.182V175.836ZM189.918 163.644V167.612H180.702V163.644H189.918ZM218.462 175.548C218.462 176.444 218.942 176.892 219.902 176.892H220.862C221.076 176.892 221.182 177.724 221.182 179.388C221.182 181.009 221.076 181.82 220.862 181.82H220.03C219.305 181.82 218.761 181.703 218.398 181.468C218.292 183.004 217.844 184.369 217.054 185.564C216.286 186.759 215.241 187.687 213.918 188.348C212.596 189.031 211.081 189.372 209.374 189.372H208.03C205.236 189.372 203.07 188.561 201.534 186.94C200.02 185.34 199.262 183.111 199.262 180.252V173.692H203.998V180.124C203.998 181.575 204.329 182.652 204.99 183.356C205.652 184.081 206.686 184.444 208.094 184.444H209.374C210.761 184.444 211.838 184.103 212.606 183.42C213.374 182.737 213.758 181.767 213.758 180.508V170.492H218.462V175.548ZM205.47 170.428V166.46H210.398V170.428H205.47ZM221.803 176.892C222.251 176.892 222.582 176.796 222.795 176.604C223.008 176.412 223.115 176.092 223.115 175.644V174.94C223.115 172.849 223.712 171.196 224.907 169.98C226.102 168.764 227.723 168.156 229.771 168.156C231.819 168.156 233.398 168.753 234.507 169.948C235.616 171.121 236.171 172.807 236.171 175.004C236.171 177.137 235.584 178.812 234.411 180.028C233.259 181.223 231.648 181.82 229.579 181.82C228.619 181.82 227.798 181.692 227.115 181.436C226.432 181.18 225.92 180.839 225.579 180.412C225.174 180.903 224.662 181.265 224.043 181.5C223.446 181.713 222.699 181.82 221.803 181.82H220.875C220.662 181.82 220.555 181.009 220.555 179.388C220.555 177.724 220.662 176.892 220.875 176.892H221.803ZM231.595 175.004C231.595 173.553 230.934 172.828 229.611 172.828C228.31 172.828 227.659 173.553 227.659 175.004C227.659 175.644 227.819 176.145 228.139 176.508C228.48 176.849 228.971 177.02 229.611 177.02C230.294 177.02 230.795 176.86 231.115 176.54C231.435 176.199 231.595 175.687 231.595 175.004ZM240.143 161.244H244.879V181.82H240.143V161.244Z" fill="#2ECC3E"/>
</svg>
