<svg width="16" height="15" viewBox="0 0 16 15" fill="none" xmlns="http://www.w3.org/2000/svg">
<g id="Headphone 2">
<g id="Vector">
<path d="M6.93138 1.59636C7.63801 1.46788 8.36203 1.46788 9.06866 1.59636C12.2439 2.17367 14.3866 5.16849 13.9078 8.36007L13.9024 8.39642C12.9352 8.44717 12.1667 9.24743 12.1667 10.2272V11.5605C12.1667 12.5731 12.9875 13.3939 14 13.3939C15.0125 13.3939 15.8334 12.5731 15.8334 11.5605V10.2272C15.8334 9.53326 15.4481 8.93012 14.8802 8.61875L14.8968 8.50841C15.4556 4.78258 12.9543 1.28644 9.24755 0.61249C8.42262 0.462503 7.57741 0.462503 6.75249 0.61249C3.04574 1.28644 0.5444 4.78257 1.10328 8.50841L1.11983 8.61875C0.551923 8.93012 0.166687 9.53326 0.166687 10.2272V11.5605C0.166687 12.5731 0.987498 13.3939 2.00002 13.3939C3.01254 13.3939 3.83335 12.5731 3.83335 11.5605V10.2272C3.83335 9.24743 3.06479 8.44717 2.09766 8.39642L2.09221 8.36007C1.61347 5.16849 3.75615 2.17367 6.93138 1.59636Z" fill="#FAFDFF"/>
<path d="M5.02024 7.87364C4.82498 7.67838 4.5084 7.67838 4.31313 7.87364C4.11787 8.0689 4.11787 8.38549 4.31313 8.58075L4.5798 8.84742C4.62092 8.88854 4.63775 8.90539 4.65126 8.91929C5.71977 10.0188 5.71977 11.7689 4.65126 12.8684C4.63775 12.8823 4.62092 12.8992 4.5798 12.9403L4.31313 13.207C4.11787 13.4022 4.11787 13.7188 4.31313 13.9141C4.5084 14.1093 4.82498 14.1093 5.02024 13.9141L5.29051 13.6438C5.32695 13.6074 5.34931 13.585 5.36842 13.5653C6.81405 12.0777 6.81405 9.71002 5.36842 8.22238C5.34927 8.20268 5.32701 8.18041 5.29044 8.14384L5.02024 7.87364Z" fill="#FAFDFF"/>
<path d="M11.6869 8.58075C11.8822 8.38549 11.8822 8.0689 11.6869 7.87364C11.4916 7.67838 11.1751 7.67838 10.9798 7.87364L10.7096 8.14381C10.673 8.1804 10.6508 8.20267 10.6316 8.22238C9.18599 9.71002 9.18599 12.0777 10.6316 13.5653C10.6508 13.585 10.673 13.6073 10.7096 13.6438L10.9798 13.9141C11.1751 14.1093 11.4916 14.1093 11.6869 13.9141C11.8822 13.7188 11.8822 13.4022 11.6869 13.207L11.4202 12.9403C11.3791 12.8992 11.3623 12.8823 11.3488 12.8684C10.2803 11.7689 10.2803 10.0188 11.3488 8.91929C11.3623 8.90539 11.3791 8.88854 11.4202 8.84742L11.6869 8.58075Z" fill="#FAFDFF"/>
</g>
</g>
</svg>
