<svg width="427" height="563" viewBox="0 0 427 563" fill="none" xmlns="http://www.w3.org/2000/svg">
<rect width="427" height="557" transform="translate(0 6)" fill="white"/>
<path d="M393.888 37.3455C393.888 32.8151 393.654 28.9386 393.187 25.7159C392.72 22.4933 391.786 18.5934 390.385 14.0163L400.473 10.5134C401.968 15.0905 402.972 19.2005 403.486 22.8435C403.999 26.4865 404.256 31.2505 404.256 37.1353V55H393.888V37.3455Z" fill="#E5F5FD"/>
<path d="M368.557 42.14C368.557 41.636 368.263 41.384 367.675 41.384H365.015V38.752C365.015 37.9493 365.253 37.3007 365.729 36.806C366.214 36.3113 366.868 36.064 367.689 36.064H369.509L369.607 37.52H367.675C367.311 37.52 367.017 37.632 366.793 37.856C366.578 38.08 366.471 38.3693 366.471 38.724V39.886H367.927C369.318 39.886 370.013 40.614 370.013 42.07C370.013 42.6673 369.84 43.218 369.495 43.722C369.159 44.2353 368.692 44.6413 368.095 44.94C367.507 45.2387 366.854 45.388 366.135 45.388H365.071C363.876 45.388 362.957 45.0427 362.313 44.352C361.669 43.6707 361.347 42.7093 361.347 41.468V38.752H362.789V41.44C362.789 43.064 363.554 43.876 365.085 43.876H366.135C366.882 43.876 367.47 43.7127 367.899 43.386C368.338 43.0687 368.557 42.6533 368.557 42.14ZM374.935 40.488C374.981 40.488 375.014 40.5393 375.033 40.642C375.061 40.7447 375.075 40.9547 375.075 41.272C375.075 41.5707 375.061 41.7667 375.033 41.86C375.014 41.9533 374.981 42 374.935 42H374.515C373.768 42 373.203 41.7807 372.821 41.342C372.438 40.9033 372.247 40.2827 372.247 39.48V32.956H373.689V39.382C373.689 39.7647 373.759 40.0447 373.899 40.222C374.048 40.3993 374.281 40.488 374.599 40.488H374.935ZM376.773 40.488C376.559 40.292 376.386 40.0447 376.255 39.746C376.125 39.4473 376.059 39.144 376.059 38.836C376.059 38.3133 376.181 37.8467 376.423 37.436C376.666 37.016 376.997 36.6893 377.417 36.456C377.837 36.2133 378.309 36.092 378.831 36.092C379.326 36.092 379.769 36.2087 380.161 36.442C380.563 36.6753 380.875 36.9927 381.099 37.394C381.333 37.786 381.449 38.2247 381.449 38.71C381.449 39.0647 381.365 39.4007 381.197 39.718C381.039 40.0353 380.819 40.292 380.539 40.488H382.247C382.593 40.488 382.854 40.4273 383.031 40.306C383.209 40.1847 383.297 40.012 383.297 39.788C383.297 39.62 383.255 39.4613 383.171 39.312C383.097 39.1533 382.943 38.9573 382.709 38.724L379.937 35.798L380.973 34.72L383.815 37.772C384.142 38.1173 384.38 38.458 384.529 38.794C384.679 39.13 384.753 39.4753 384.753 39.83C384.753 40.4833 384.529 41.0107 384.081 41.412C383.633 41.804 383.022 42 382.247 42H380.679C380.073 42 379.634 41.986 379.363 41.958C379.102 41.9207 378.887 41.8507 378.719 41.748C378.551 41.8413 378.313 41.9067 378.005 41.944C377.707 41.9813 377.277 42 376.717 42H374.939C374.846 42 374.799 41.7573 374.799 41.272C374.799 40.7493 374.846 40.488 374.939 40.488H376.773ZM378.691 40.474C379.13 40.2873 379.466 40.054 379.699 39.774C379.933 39.494 380.049 39.1813 380.049 38.836C380.049 38.4533 379.933 38.1453 379.699 37.912C379.466 37.6693 379.153 37.548 378.761 37.548C378.369 37.548 378.052 37.6693 377.809 37.912C377.576 38.1453 377.459 38.4533 377.459 38.836C377.459 39.5453 377.87 40.0913 378.691 40.474ZM389.064 41.552C389.064 42.3267 388.91 43.0033 388.602 43.582C388.294 44.1607 387.855 44.604 387.286 44.912C386.726 45.2293 386.072 45.388 385.326 45.388H384.276L384.15 43.876H385.312C386.03 43.876 386.59 43.6707 386.992 43.26C387.402 42.8587 387.608 42.2893 387.608 41.552V37.352H389.064V41.552ZM391.292 32.956H392.734V42H391.292V32.956ZM397.198 41.552C397.198 42.3267 397.044 43.0033 396.736 43.582C396.428 44.1607 395.99 44.604 395.42 44.912C394.86 45.2293 394.207 45.388 393.46 45.388H392.41L392.284 43.876H393.446C394.165 43.876 394.725 43.6707 395.126 43.26C395.537 42.8587 395.742 42.2893 395.742 41.552V37.352H397.198V41.552ZM395.546 35.756V34.384H397.226V35.756H395.546ZM402.114 40.488C402.161 40.488 402.194 40.5393 402.212 40.642C402.24 40.7447 402.254 40.9547 402.254 41.272C402.254 41.5707 402.24 41.7667 402.212 41.86C402.194 41.9533 402.161 42 402.114 42H401.694C400.948 42 400.383 41.7807 400 41.342C399.618 40.9033 399.426 40.2827 399.426 39.48V32.956H400.868V39.382C400.868 39.7647 400.938 40.0447 401.078 40.222C401.228 40.3993 401.461 40.488 401.778 40.488H402.114ZM405.969 39.648C405.969 40.3853 405.75 40.964 405.311 41.384C404.872 41.7947 404.284 42 403.547 42H402.119C402.026 42 401.979 41.7573 401.979 41.272C401.979 40.7493 402.026 40.488 402.119 40.488H403.547C403.836 40.488 404.07 40.4133 404.247 40.264C404.424 40.1053 404.513 39.886 404.513 39.606V37.352H405.969V39.648ZM402.399 45.01V43.638H404.079V45.01H402.399Z" fill="#737B7F"/>
<path d="M317.661 37.68C318.688 37.68 319.488 37.3867 320.061 36.8C320.648 36.2267 320.941 35.4133 320.941 34.36V28.36H323.021V31.44C323.021 32.3733 323.528 32.84 324.541 32.84H324.821C324.954 32.84 325.021 33.2133 325.021 33.96C325.021 34.6533 324.954 35 324.821 35H324.541C324.208 35 323.901 34.9533 323.621 34.86C323.354 34.7533 323.154 34.6133 323.021 34.44V34.56C322.994 35.6 322.754 36.52 322.301 37.32C321.861 38.12 321.241 38.74 320.441 39.18C319.654 39.62 318.734 39.84 317.681 39.84H317.101L316.921 37.68H317.661ZM327.216 32.84C327.643 32.84 327.983 32.7333 328.236 32.52C328.503 32.2933 328.636 31.98 328.636 31.58V28.36H330.716V31.5C330.716 32.3933 331.176 32.84 332.096 32.84H332.776C332.91 32.84 332.976 33.2067 332.976 33.94C332.976 34.6467 332.91 35 332.776 35H332.016C330.83 35 330.043 34.64 329.656 33.92C329.19 34.64 328.376 35 327.216 35H324.816C324.683 35 324.616 34.6533 324.616 33.96C324.616 33.2133 324.683 32.84 324.816 32.84H327.216ZM330.936 24.16V26.08H325.496V24.16H330.936ZM335.185 32.84C335.612 32.84 335.952 32.7333 336.205 32.52C336.472 32.2933 336.605 31.98 336.605 31.58V28.36H338.685V31.5C338.685 32.3933 339.145 32.84 340.065 32.84H340.745C340.878 32.84 340.945 33.2067 340.945 33.94C340.945 34.6467 340.878 35 340.745 35H339.985C338.798 35 338.012 34.64 337.625 33.92C337.158 34.64 336.345 35 335.185 35H332.785C332.652 35 332.585 34.6533 332.585 33.96C332.585 33.2133 332.652 32.84 332.785 32.84H335.185ZM336.945 37.34V39.26H331.505V37.34H336.945ZM333.225 42.2V40.34H335.225V42.2H333.225ZM345.614 32.84C346.027 32.84 346.361 32.7333 346.614 32.52C346.867 32.2933 346.994 31.98 346.994 31.58V28.36H349.074V31.64C349.074 32.6933 348.761 33.52 348.134 34.12C347.521 34.7067 346.681 35 345.614 35H340.754C340.621 35 340.554 34.6533 340.554 33.96C340.554 33.2133 340.621 32.84 340.754 32.84H345.614ZM346.394 37.34V39.26H340.954V37.34H346.394ZM349.868 37.68C350.895 37.68 351.695 37.3867 352.268 36.8C352.855 36.2267 353.148 35.4133 353.148 34.36V28.36H355.228V31.44C355.228 32.3733 355.735 32.84 356.748 32.84H357.028C357.161 32.84 357.228 33.2133 357.228 33.96C357.228 34.6533 357.161 35 357.028 35H356.748C356.415 35 356.108 34.9533 355.828 34.86C355.561 34.7533 355.361 34.6133 355.228 34.44V34.56C355.201 35.6 354.961 36.52 354.508 37.32C354.068 38.12 353.448 38.74 352.648 39.18C351.861 39.62 350.941 39.84 349.888 39.84H349.308L349.128 37.68H349.868ZM362.483 32.84C362.99 32.84 363.383 32.7533 363.663 32.58C363.943 32.3933 364.083 32.1467 364.083 31.84C364.083 31.5867 364.023 31.3533 363.903 31.14C363.783 30.9267 363.59 30.68 363.323 30.4L358.803 25.94V24.2L366.203 21.3L366.823 23.28L361.283 25.4L364.883 29.04C365.723 29.8667 366.143 30.82 366.143 31.9C366.143 32.82 365.823 33.5667 365.183 34.14C364.543 34.7133 363.643 35 362.483 35H357.023C356.89 35 356.823 34.6533 356.823 33.96C356.823 33.2133 356.89 32.84 357.023 32.84H362.483Z" fill="#F53A21"/>
<rect x="25" y="24" width="99" height="32" rx="8" fill="#2150F5"/>
<g clip-path="url(#clip0_29_1243)">
<rect x="28" y="28" width="45" height="24" rx="6" fill="#FAFDFF"/>
<path d="M56.9451 42.608C57.5611 42.608 58.0411 42.432 58.3851 42.08C58.7371 41.736 58.9131 41.248 58.9131 40.616V37.016H60.1611V38.864C60.1611 39.424 60.4651 39.704 61.0731 39.704H61.2411C61.3211 39.704 61.3611 39.928 61.3611 40.376C61.3611 40.792 61.3211 41 61.2411 41H61.0731C60.8731 41 60.6891 40.972 60.5211 40.916C60.3611 40.852 60.2411 40.768 60.1611 40.664V40.736C60.1451 41.36 60.0011 41.912 59.7291 42.392C59.4651 42.872 59.0931 43.244 58.6131 43.508C58.1411 43.772 57.5891 43.904 56.9571 43.904H56.6091L56.5011 42.608H56.9451ZM63.4823 39.704C63.7383 39.704 63.9423 39.64 64.0943 39.512C64.2543 39.376 64.3343 39.188 64.3343 38.948V37.016H65.5703V38.9C65.5703 39.436 65.8463 39.704 66.3983 39.704H66.8183C66.8983 39.704 66.9383 39.924 66.9383 40.364C66.9383 40.788 66.8983 41 66.8183 41H66.3503C65.6463 41 65.1783 40.784 64.9463 40.352C64.6663 40.784 64.1783 41 63.4823 41H61.2383C61.1583 41 61.1183 40.792 61.1183 40.376C61.1183 39.928 61.1583 39.704 61.2383 39.704H63.4823ZM65.6423 34.472V35.624H62.3783V34.472H65.6423ZM70.1164 38.984C70.1164 39.616 69.9284 40.112 69.5524 40.472C69.1764 40.824 68.6724 41 68.0404 41H66.8164C66.7364 41 66.6964 40.792 66.6964 40.376C66.6964 39.928 66.7364 39.704 66.8164 39.704H68.0404C68.2884 39.704 68.4884 39.64 68.6404 39.512C68.7924 39.376 68.8684 39.188 68.8684 38.948V37.016H70.1164V38.984ZM70.4404 34.496V35.648H67.1764V34.496H70.4404Z" fill="#1C43CC"/>
<path d="M33.22 42.1C34.0267 42.1 34.6533 41.8967 35.1 41.49C35.5533 41.0767 35.78 40.4833 35.78 39.71V35.88H34.68V39.63C34.68 40.1033 34.5533 40.4633 34.3 40.71C34.0533 40.95 33.6933 41.07 33.22 41.07C32.7467 41.07 32.3833 40.95 32.13 40.71C31.8767 40.4633 31.75 40.1033 31.75 39.63V35.88H30.65V39.71C30.65 40.4833 30.8733 41.0767 31.32 41.49C31.7733 41.8967 32.4067 42.1 33.22 42.1ZM38.9058 42.1C39.6658 42.1 40.2424 41.95 40.6358 41.65C41.0358 41.3433 41.2358 40.9067 41.2358 40.34C41.2358 40.0067 41.1824 39.7267 41.0758 39.5C40.9691 39.2667 40.7824 39.0667 40.5158 38.9C40.2558 38.7267 39.8924 38.5833 39.4258 38.47C39.0658 38.3833 38.7891 38.3 38.5958 38.22C38.4024 38.1333 38.2624 38.0367 38.1758 37.93C38.0958 37.8233 38.0558 37.6867 38.0558 37.52C38.0558 36.9533 38.5058 36.67 39.4058 36.67C39.9324 36.67 40.4291 36.77 40.8958 36.97V36.04C40.7091 35.9733 40.4524 35.9167 40.1258 35.87C39.7991 35.8167 39.4924 35.79 39.2058 35.79C38.4458 35.79 37.8758 35.94 37.4958 36.24C37.1224 36.54 36.9358 36.97 36.9358 37.53C36.9358 37.85 36.9891 38.1167 37.0958 38.33C37.2024 38.5367 37.3758 38.7167 37.6158 38.87C37.8558 39.0167 38.1891 39.1533 38.6158 39.28C39.1624 39.4267 39.5491 39.5733 39.7758 39.72C40.0024 39.8667 40.1158 40.0733 40.1158 40.34C40.1158 40.9267 39.6791 41.22 38.8058 41.22C38.2391 41.22 37.6558 41.0933 37.0558 40.84V41.77C37.5491 41.99 38.1658 42.1 38.9058 42.1ZM44.848 42C45.7414 42 46.3947 41.76 46.808 41.28C47.228 40.7933 47.438 40.0267 47.438 38.98C47.438 37.8867 47.2247 37.0967 46.798 36.61C46.378 36.1233 45.728 35.88 44.848 35.88H42.448V42H44.848ZM44.678 36.87C45.1247 36.87 45.468 36.95 45.708 37.11C45.948 37.2633 46.1114 37.49 46.198 37.79C46.2847 38.09 46.328 38.4867 46.328 38.98C46.328 39.54 46.268 39.9733 46.148 40.28C46.028 40.58 45.8514 40.7867 45.618 40.9C45.3847 41.0133 45.0714 41.07 44.678 41.07H43.548V36.87H44.678ZM50.8874 36.77H52.7174V35.88H47.9674V36.77H49.7874V42H50.8874V36.77Z" fill="#1C43CC"/>
</g>
<rect x="77" y="28" width="44" height="24" rx="6" fill="#2150F5"/>
<path d="M102.562 34.248H103.81V41.52C103.81 42.224 103.67 42.828 103.39 43.332C103.11 43.844 102.718 44.232 102.214 44.496C101.718 44.768 101.146 44.904 100.498 44.904H99.9943C98.9703 44.904 98.1823 44.608 97.6303 44.016C97.0783 43.432 96.8023 42.608 96.8023 41.544V39.216H98.0383V41.52C98.0383 42.912 98.6943 43.608 100.006 43.608H100.498C101.138 43.608 101.642 43.432 102.01 43.08C102.378 42.728 102.562 42.244 102.562 41.628V34.248ZM111.694 39.984C111.694 40.616 111.506 41.112 111.13 41.472C110.762 41.824 110.262 42 109.63 42H108.406C108.382 42 108.362 41.988 108.346 41.964C108.338 41.988 108.322 42 108.298 42H107.926C107.286 42 106.802 41.812 106.474 41.436C106.146 41.06 105.982 40.528 105.982 39.84V34.248H107.23V39.756C107.23 40.084 107.29 40.324 107.41 40.476C107.538 40.628 107.738 40.704 108.01 40.704H108.298C108.314 40.704 108.334 40.72 108.358 40.752C108.366 40.72 108.382 40.704 108.406 40.704H109.63C109.878 40.704 110.078 40.64 110.23 40.512C110.382 40.376 110.458 40.188 110.458 39.948V38.016H111.694V39.984ZM115.114 38.016V41.616C115.114 42.28 114.982 42.86 114.718 43.356C114.454 43.852 114.078 44.232 113.59 44.496C113.11 44.768 112.554 44.904 111.922 44.904H111.562L111.454 43.608H111.91C112.526 43.608 113.006 43.432 113.35 43.08C113.694 42.736 113.866 42.248 113.866 41.616V38.016H115.114ZM108.994 43.404V44.568H105.718V43.404H108.994Z" fill="#F6FCFE"/>
<path d="M84.16 36.656H82.84V44H84.16V36.656ZM88.2163 41.468C88.5123 41.468 88.7203 41.508 88.8403 41.588C88.9683 41.66 89.0723 41.8 89.1523 42.008L89.9803 44H91.3603L90.4483 41.804C90.3843 41.644 90.3163 41.52 90.2443 41.432C90.1723 41.336 90.0763 41.256 89.9563 41.192C90.4123 41.032 90.7643 40.772 91.0123 40.412C91.2683 40.044 91.3963 39.592 91.3963 39.056C91.3963 38.312 91.2043 37.728 90.8203 37.304C90.4443 36.872 89.8723 36.656 89.1043 36.656H85.8283V44H87.1483V41.468H88.2163ZM88.8643 37.808C89.6723 37.808 90.0763 38.224 90.0763 39.056C90.0763 39.896 89.6363 40.316 88.7563 40.316H87.1483V37.808H88.8643Z" fill="#F6FCFE"/>
<path d="M313.498 22.4152C306.5 19.5 283.769 11.4712 272 23.5C264.773 30.8863 265.311 37.1704 273.725 39.4152C287.498 43.0898 287.998 30.9152 284.498 24.0468C278.764 7.42683 243.446 13.3297 222.998 24.0288C205.825 33.0137 178.684 -15.6173 140.849 3.02883C133.037 6.87893 115.159 8.61051 110.242 15.2864C102.635 25.6142 106.393 22.2817 106.998 14.4151C107.917 2.46155 106.575 13.2132 106.489 17.8557C106.478 18.4326 106.99 18.86 107.564 18.7994C119.123 17.5785 104.32 20.3311 115.498 17.4151" stroke="#6B8AF8" stroke-width="1.46629" stroke-linecap="round" stroke-dasharray="6.93 5.93"/>
<rect x="222" y="96" width="185" height="207" rx="49" fill="#2150F5"/>
<path d="M315 197C332.673 197 347 182.673 347 165C347 147.327 332.673 133 315 133C297.327 133 283 147.327 283 165C283 182.673 297.327 197 315 197Z" fill="black"/>
<path d="M316 140.986V158.725L330.992 165.425L316 140.986Z" fill="#2E3133"/>
<path d="M316 140.986L301 165.425L316 158.725V140.986Z" fill="white"/>
<path d="M316 176.923V188.978L331.001 168.215L316 176.923Z" fill="#2E3133"/>
<path d="M316 188.978V176.923L301 168.224L316 188.986V188.978Z" fill="white"/>
<path d="M316 174.133L330.992 165.425L316 158.733V174.133Z" fill="#737B7F"/>
<path d="M301 165.425L316 174.133V158.733L301 165.425Z" fill="#737B7F"/>
<g clip-path="url(#clip1_29_1243)">
<rect x="261" y="197" width="108" height="24" rx="6" fill="#2150F5"/>
<path d="M285.712 211.576H280.88V208.84H285.168V207.368H280.88V204.632H285.712V203.208H279.12V213H285.712V211.576ZM291.639 204.632H294.567V203.208H286.967V204.632H289.879V213H291.639V204.632ZM298.005 208.984H302.309V213H304.037V203.208H302.309V207.208H298.005V203.208H296.245V213H298.005V208.984Z" fill="#E6AE1F"/>
<path d="M312.892 208.4C312.892 207.824 313.031 207.381 313.308 207.072H312.684C312.14 207.072 311.724 207.216 311.436 207.504C311.148 207.781 311.004 208.176 311.004 208.688V215.872H309.356V208.688C309.356 207.685 309.66 206.891 310.268 206.304C310.887 205.707 311.719 205.408 312.764 205.408H316.124C317.095 205.408 317.82 205.648 318.3 206.128C318.791 206.597 319.036 207.275 319.036 208.16V209.136C319.036 210.064 318.77 210.773 318.236 211.264C317.703 211.755 316.93 212 315.916 212C314.924 212 314.172 211.765 313.66 211.296C313.148 210.816 312.892 210.155 312.892 209.312V208.4ZM315.996 210.272C316.444 210.272 316.786 210.181 317.02 210C317.255 209.819 317.372 209.515 317.372 209.088V208.304C317.372 207.909 317.26 207.605 317.036 207.392C316.823 207.179 316.519 207.072 316.124 207.072H315.724C315.34 207.072 315.047 207.189 314.844 207.424C314.652 207.648 314.556 207.947 314.556 208.32V208.992C314.556 209.461 314.668 209.792 314.892 209.984C315.127 210.176 315.495 210.272 315.996 210.272ZM329.034 210.272C329.141 210.272 329.194 210.571 329.194 211.168C329.194 211.723 329.141 212 329.034 212H327.61C327.504 213.216 327.082 214.165 326.346 214.848C325.621 215.531 324.666 215.872 323.482 215.872H321.418L321.274 214.144H323.53C324.288 214.144 324.885 213.952 325.322 213.568C325.76 213.184 325.984 212.661 325.994 212H324.618C323.488 212 322.677 211.771 322.186 211.312C321.696 210.843 321.45 210.112 321.45 209.12C321.45 208.437 321.578 207.835 321.834 207.312C322.101 206.789 322.469 206.384 322.938 206.096C323.418 205.797 323.968 205.648 324.586 205.648C325.536 205.648 326.282 205.968 326.826 206.608C327.37 207.237 327.642 208.101 327.642 209.2V210.272H329.034ZM323.114 209.04C323.114 209.488 323.232 209.808 323.466 210C323.701 210.181 324.112 210.272 324.698 210.272H325.994V209.232C325.994 208.603 325.866 208.128 325.61 207.808C325.354 207.477 324.986 207.312 324.506 207.312C324.069 207.312 323.728 207.472 323.482 207.792C323.237 208.101 323.114 208.517 323.114 209.04ZM332.919 210.272C333.25 210.272 333.517 210.187 333.719 210.016C333.922 209.835 334.023 209.584 334.023 209.264V206.688H335.687V209.312C335.687 210.155 335.437 210.816 334.935 211.296C334.445 211.765 333.773 212 332.919 212H329.031C328.925 212 328.871 211.723 328.871 211.168C328.871 210.571 328.925 210.272 329.031 210.272H332.919ZM333.543 213.872V215.408H329.191V213.872H333.543ZM336.323 214.144C337.144 214.144 337.784 213.909 338.243 213.44C338.712 212.981 338.947 212.331 338.947 211.488V206.688H340.611V209.152C340.611 209.899 341.016 210.272 341.827 210.272H342.051C342.157 210.272 342.211 210.571 342.211 211.168C342.211 211.723 342.157 212 342.051 212H341.827C341.56 212 341.315 211.963 341.091 211.888C340.877 211.803 340.717 211.691 340.611 211.552V211.648C340.589 212.48 340.397 213.216 340.035 213.856C339.683 214.496 339.187 214.992 338.547 215.344C337.917 215.696 337.181 215.872 336.339 215.872H335.875L335.731 214.144H336.323ZM346.447 209.312C346.447 210.155 346.196 210.816 345.695 211.296C345.194 211.765 344.522 212 343.679 212H342.047C341.94 212 341.887 211.723 341.887 211.168C341.887 210.571 341.94 210.272 342.047 210.272H343.679C344.01 210.272 344.276 210.187 344.479 210.016C344.682 209.835 344.783 209.584 344.783 209.264V206.688H346.447V209.312ZM346.879 203.328V204.864H342.527V203.328H346.879ZM348.985 201.664H350.633V212H348.985V201.664Z" fill="#E6AE1F"/>
</g>
<path d="M284.573 239.144C285.394 239.144 286.034 238.909 286.493 238.44C286.962 237.981 287.197 237.331 287.197 236.488V231.688H288.861V234.152C288.861 234.899 289.266 235.272 290.077 235.272H290.301C290.407 235.272 290.461 235.571 290.461 236.168C290.461 236.723 290.407 237 290.301 237H290.077C289.81 237 289.565 236.963 289.341 236.888C289.127 236.803 288.967 236.691 288.861 236.552V236.648C288.839 237.48 288.647 238.216 288.285 238.856C287.933 239.496 287.437 239.992 286.797 240.344C286.167 240.696 285.431 240.872 284.589 240.872H284.125L283.981 239.144H284.573ZM293.289 235.272C293.63 235.272 293.902 235.187 294.105 235.016C294.318 234.835 294.425 234.584 294.425 234.264V231.688H296.073V234.2C296.073 234.915 296.441 235.272 297.177 235.272H297.737C297.844 235.272 297.897 235.565 297.897 236.152C297.897 236.717 297.844 237 297.737 237H297.113C296.174 237 295.55 236.712 295.241 236.136C294.868 236.712 294.217 237 293.289 237H290.297C290.19 237 290.137 236.723 290.137 236.168C290.137 235.571 290.19 235.272 290.297 235.272H293.289ZM296.169 228.296V229.832H291.817V228.296H296.169ZM302.134 234.312C302.134 235.155 301.884 235.816 301.382 236.296C300.881 236.765 300.209 237 299.366 237H297.734C297.628 237 297.574 236.723 297.574 236.168C297.574 235.571 297.628 235.272 297.734 235.272H299.366C299.697 235.272 299.964 235.187 300.166 235.016C300.369 234.835 300.47 234.584 300.47 234.264V231.688H302.134V234.312ZM302.566 228.328V229.864H298.214V228.328H302.566ZM306.833 237.16C307.995 237.16 308.886 236.877 309.505 236.312C310.123 235.747 310.433 234.973 310.433 233.992C310.433 232.947 310.166 232.189 309.633 231.72C309.11 231.251 308.31 231.016 307.233 231.016H305.729L305.873 228.696H309.681L309.809 227.208H304.385L304.129 231.352V232.328H306.849C307.521 232.328 307.99 232.456 308.257 232.712C308.534 232.957 308.673 233.363 308.673 233.928C308.673 234.493 308.497 234.925 308.145 235.224C307.793 235.523 307.275 235.672 306.593 235.672C306.209 235.672 305.798 235.629 305.361 235.544C304.923 235.459 304.529 235.341 304.177 235.192V236.68C304.507 236.829 304.923 236.947 305.424 237.032C305.926 237.117 306.395 237.16 306.833 237.16ZM314.049 235.832H312.545L312.113 238.824H313.361L314.049 235.832ZM318.395 237.16C319.558 237.16 320.448 236.877 321.067 236.312C321.686 235.747 321.995 234.973 321.995 233.992C321.995 232.947 321.728 232.189 321.195 231.72C320.672 231.251 319.872 231.016 318.795 231.016H317.291L317.435 228.696H321.243L321.371 227.208H315.947L315.691 231.352V232.328H318.411C319.083 232.328 319.552 232.456 319.819 232.712C320.096 232.957 320.235 233.363 320.235 233.928C320.235 234.493 320.059 234.925 319.707 235.224C319.355 235.523 318.838 235.672 318.155 235.672C317.771 235.672 317.36 235.629 316.923 235.544C316.486 235.459 316.091 235.341 315.739 235.192V236.68C316.07 236.829 316.486 236.947 316.987 237.032C317.488 237.117 317.958 237.16 318.395 237.16ZM327.82 237.16C329.217 237.16 330.252 236.733 330.924 235.88C331.606 235.027 331.948 233.805 331.948 232.216C331.948 230.509 331.622 229.224 330.972 228.36C330.321 227.496 329.27 227.064 327.82 227.064C326.358 227.064 325.297 227.496 324.636 228.36C323.985 229.224 323.66 230.509 323.66 232.216C323.66 233.805 324.001 235.027 324.684 235.88C325.366 236.733 326.412 237.16 327.82 237.16ZM327.82 235.512C326.998 235.512 326.396 235.224 326.012 234.648C325.638 234.061 325.452 233.251 325.452 232.216C325.452 231.032 325.628 230.152 325.98 229.576C326.342 228.989 326.956 228.696 327.82 228.696C328.684 228.696 329.292 228.989 329.644 229.576C330.006 230.152 330.188 231.032 330.188 232.216C330.188 233.251 329.996 234.061 329.612 234.648C329.238 235.224 328.641 235.512 327.82 235.512ZM337.773 237.16C339.17 237.16 340.205 236.733 340.877 235.88C341.56 235.027 341.901 233.805 341.901 232.216C341.901 230.509 341.576 229.224 340.925 228.36C340.274 227.496 339.224 227.064 337.773 227.064C336.312 227.064 335.25 227.496 334.589 228.36C333.938 229.224 333.613 230.509 333.613 232.216C333.613 233.805 333.954 235.027 334.637 235.88C335.32 236.733 336.365 237.16 337.773 237.16ZM337.773 235.512C336.952 235.512 336.349 235.224 335.965 234.648C335.592 234.061 335.405 233.251 335.405 232.216C335.405 231.032 335.581 230.152 335.933 229.576C336.296 228.989 336.909 228.696 337.773 228.696C338.637 228.696 339.245 228.989 339.597 229.576C339.96 230.152 340.141 231.032 340.141 232.216C340.141 233.251 339.949 234.061 339.565 234.648C339.192 235.224 338.594 235.512 337.773 235.512Z" fill="#2E3133"/>
<path d="M286.367 251.497C286.661 251.033 287.339 251.033 287.633 251.497L291.031 256.848C291.349 257.347 290.99 258 290.398 258H283.602C283.01 258 282.651 257.347 282.969 256.848L286.367 251.497Z" fill="#18CE2A"/>
<path d="M300.447 258.12C301.495 258.12 302.271 257.8 302.775 257.16C303.287 256.52 303.543 255.604 303.543 254.412C303.543 253.132 303.299 252.168 302.811 251.52C302.323 250.872 301.535 250.548 300.447 250.548C299.351 250.548 298.555 250.872 298.059 251.52C297.571 252.168 297.327 253.132 297.327 254.412C297.327 255.604 297.583 256.52 298.095 257.16C298.607 257.8 299.391 258.12 300.447 258.12ZM300.447 256.884C299.831 256.884 299.379 256.668 299.091 256.236C298.811 255.796 298.671 255.188 298.671 254.412C298.671 253.524 298.803 252.864 299.067 252.432C299.339 251.992 299.799 251.772 300.447 251.772C301.095 251.772 301.551 251.992 301.815 252.432C302.087 252.864 302.223 253.524 302.223 254.412C302.223 255.188 302.079 255.796 301.791 256.236C301.511 256.668 301.063 256.884 300.447 256.884ZM305.836 258C305.58 258 305.388 257.936 305.26 257.808C305.14 257.68 305.08 257.472 305.08 257.184C305.08 256.896 305.14 256.696 305.26 256.584C305.38 256.464 305.572 256.404 305.836 256.404C306.1 256.404 306.292 256.464 306.412 256.584C306.54 256.696 306.604 256.896 306.604 257.184C306.604 257.472 306.54 257.68 306.412 257.808C306.284 257.936 306.092 258 305.836 258ZM309.86 256.884C309.964 256.62 310.112 256.38 310.304 256.164C310.496 255.948 310.768 255.676 311.12 255.348L311.336 255.144C311.68 254.832 311.944 254.564 312.128 254.34C312.32 254.108 312.468 253.86 312.572 253.596C312.676 253.332 312.728 253.028 312.728 252.684C312.728 252.02 312.52 251.5 312.104 251.124C311.696 250.74 311.1 250.548 310.316 250.548C309.964 250.548 309.612 250.58 309.26 250.644C308.908 250.708 308.608 250.792 308.36 250.896V252.12C308.912 251.888 309.472 251.772 310.04 251.772C310.496 251.772 310.836 251.872 311.06 252.072C311.284 252.272 311.396 252.548 311.396 252.9C311.396 253.132 311.352 253.344 311.264 253.536C311.176 253.728 311.032 253.936 310.832 254.16C310.64 254.376 310.348 254.664 309.956 255.024C309.5 255.432 309.12 255.812 308.816 256.164C308.52 256.508 308.284 256.884 308.108 257.292V258H312.8V256.884H309.86ZM316.054 258.12C316.926 258.12 317.594 257.908 318.058 257.484C318.522 257.06 318.754 256.48 318.754 255.744C318.754 254.96 318.554 254.392 318.154 254.04C317.762 253.688 317.162 253.512 316.354 253.512H315.226L315.334 251.772H318.19L318.286 250.656H314.218L314.026 253.764V254.496H316.066C316.57 254.496 316.922 254.592 317.122 254.784C317.33 254.968 317.434 255.272 317.434 255.696C317.434 256.12 317.302 256.444 317.038 256.668C316.774 256.892 316.386 257.004 315.874 257.004C315.586 257.004 315.278 256.972 314.95 256.908C314.622 256.844 314.326 256.756 314.062 256.644V257.76C314.31 257.872 314.622 257.96 314.998 258.024C315.374 258.088 315.726 258.12 316.054 258.12ZM324.339 254.124C324.339 254.932 324.443 255.604 324.651 256.14C324.859 256.668 325.235 257.196 325.779 257.724L325.047 258.42C324.351 257.828 323.851 257.196 323.547 256.524C323.251 255.852 323.103 255.052 323.103 254.124C323.103 253.196 323.251 252.396 323.547 251.724C323.851 251.052 324.351 250.42 325.047 249.828L325.779 250.536C325.235 251.064 324.859 251.592 324.651 252.12C324.443 252.648 324.339 253.316 324.339 254.124ZM329.752 250.548L327.292 250.932V252.144L328.432 251.952V258H329.752V250.548ZM333.222 258.12C334.094 258.12 334.762 257.908 335.226 257.484C335.69 257.06 335.922 256.48 335.922 255.744C335.922 254.96 335.722 254.392 335.322 254.04C334.93 253.688 334.33 253.512 333.522 253.512H332.394L332.502 251.772H335.358L335.454 250.656H331.386L331.194 253.764V254.496H333.234C333.738 254.496 334.09 254.592 334.29 254.784C334.498 254.968 334.602 255.272 334.602 255.696C334.602 256.12 334.47 256.444 334.206 256.668C333.942 256.892 333.554 257.004 333.042 257.004C332.754 257.004 332.446 256.972 332.118 256.908C331.79 256.844 331.494 256.756 331.23 256.644V257.76C331.478 257.872 331.79 257.96 332.166 258.024C332.542 258.088 332.894 258.12 333.222 258.12ZM340.291 258.12C341.339 258.12 342.115 257.8 342.619 257.16C343.131 256.52 343.387 255.604 343.387 254.412C343.387 253.132 343.143 252.168 342.655 251.52C342.167 250.872 341.379 250.548 340.291 250.548C339.195 250.548 338.399 250.872 337.903 251.52C337.415 252.168 337.171 253.132 337.171 254.412C337.171 255.604 337.427 256.52 337.939 257.16C338.451 257.8 339.235 258.12 340.291 258.12ZM340.291 256.884C339.675 256.884 339.223 256.668 338.935 256.236C338.655 255.796 338.515 255.188 338.515 254.412C338.515 253.524 338.647 252.864 338.911 252.432C339.183 251.992 339.643 251.772 340.291 251.772C340.939 251.772 341.395 251.992 341.659 252.432C341.931 252.864 342.067 253.524 342.067 254.412C342.067 255.188 341.923 255.796 341.635 256.236C341.355 256.668 340.907 256.884 340.291 256.884ZM346.363 254.124C346.363 253.316 346.259 252.648 346.051 252.12C345.843 251.592 345.467 251.064 344.923 250.536L345.655 249.828C346.351 250.42 346.847 251.052 347.143 251.724C347.447 252.396 347.599 253.196 347.599 254.124C347.599 255.052 347.447 255.852 347.143 256.524C346.847 257.196 346.351 257.828 345.655 258.42L344.923 257.724C345.467 257.196 345.843 256.668 346.051 256.14C346.259 255.604 346.363 254.932 346.363 254.124Z" fill="#18CE2A"/>
<rect x="25" y="96" width="185" height="207" rx="49" fill="#2150F5"/>
<path d="M149.042 173.743C144.766 190.889 127.403 201.317 110.257 197.041C93.1197 192.766 82.6914 175.403 86.967 158.265C91.2339 141.119 108.597 130.682 125.734 134.958C142.88 139.234 153.309 156.597 149.033 173.743H149.042Z" fill="black"/>
<path d="M132.113 161.437C132.747 157.179 129.506 154.894 125.074 153.364L126.508 147.594L122.997 146.716L121.598 152.33C120.677 152.104 119.729 151.887 118.782 151.669L120.19 146.021L116.679 145.143L115.236 150.905C114.472 150.731 113.724 150.557 112.994 150.375V150.357L108.154 149.149L107.224 152.895C107.224 152.895 109.831 153.494 109.77 153.529C111.196 153.885 111.448 154.824 111.404 155.571L109.762 162.167L107.467 171.37C107.294 171.805 106.85 172.448 105.86 172.205C105.894 172.257 103.305 171.57 103.305 171.57L101.558 175.594L106.129 176.732C106.981 176.95 107.815 177.167 108.632 177.375L107.181 183.207L110.691 184.084L112.134 178.314C113.09 178.575 114.02 178.818 114.932 179.044L113.498 184.788L117.009 185.666L118.461 179.843C124.448 180.973 128.95 180.521 130.844 175.107C132.374 170.745 130.766 168.233 127.62 166.591C129.914 166.061 131.644 164.548 132.104 161.437H132.113ZM124.092 172.683C123.006 177.045 115.662 174.69 113.281 174.09L115.21 166.365C117.592 166.956 125.222 168.138 124.092 172.683ZM125.178 161.368C124.187 165.331 118.078 163.314 116.097 162.828L117.844 155.815C119.825 156.31 126.212 157.231 125.178 161.368Z" fill="white"/>
<g clip-path="url(#clip2_29_1243)">
<rect x="64" y="198" width="108" height="24" rx="6" fill="#2150F5"/>
<path d="M74.92 217C75.88 217 76.6053 216.765 77.096 216.296C77.5973 215.816 77.848 215.101 77.848 214.152C77.848 213.533 77.72 213.048 77.464 212.696C77.2187 212.344 76.856 212.099 76.376 211.96C76.728 211.768 77 211.496 77.192 211.144C77.3947 210.781 77.496 210.349 77.496 209.848C77.496 208.088 76.5733 207.208 74.728 207.208H70.12V217H74.92ZM74.296 208.552C74.872 208.552 75.272 208.675 75.496 208.92C75.7307 209.155 75.848 209.517 75.848 210.008C75.848 210.925 75.3787 211.384 74.44 211.384H71.768V208.552H74.296ZM74.392 212.616C74.9467 212.616 75.3627 212.728 75.64 212.952C75.9173 213.165 76.056 213.539 76.056 214.072C76.056 214.627 75.9333 215.032 75.688 215.288C75.4427 215.533 75.0533 215.656 74.52 215.656H71.768V212.616H74.392ZM83.4824 208.632H86.4104V207.208H78.8104V208.632H81.7224V217H83.4824V208.632ZM92.0055 217.16C92.9868 217.16 93.9095 217.011 94.7735 216.712V215.016C93.9415 215.357 93.0722 215.528 92.1655 215.528C90.0855 215.528 89.0455 214.445 89.0455 212.28C89.0455 211.107 89.2908 210.216 89.7815 209.608C90.2722 208.989 91.0508 208.68 92.1175 208.68C93.0562 208.68 93.9362 208.856 94.7575 209.208V207.528C93.9575 207.219 93.0402 207.064 92.0055 207.064C90.3842 207.064 89.1842 207.517 88.4055 208.424C87.6375 209.32 87.2535 210.605 87.2535 212.28C87.2535 213.837 87.6482 215.043 88.4375 215.896C89.2375 216.739 90.4268 217.16 92.0055 217.16Z" fill="#E6AE1F"/>
<path d="M110.388 213.28C110.388 213.589 110.478 213.835 110.66 214.016C110.852 214.187 111.124 214.272 111.476 214.272H111.844C111.95 214.272 112.004 214.571 112.004 215.168C112.004 215.723 111.95 216 111.844 216H111.54C111.294 216 111.065 215.968 110.852 215.904C110.649 215.84 110.494 215.76 110.388 215.664V215.744C110.366 216.544 110.169 217.259 109.796 217.888C109.422 218.517 108.905 219.003 108.244 219.344C107.582 219.696 106.825 219.872 105.972 219.872H105.3C103.934 219.872 102.884 219.477 102.148 218.688C101.412 217.909 101.044 216.811 101.044 215.392V212.288H102.692V215.36C102.692 217.216 103.566 218.144 105.316 218.144H105.972C106.825 218.144 107.497 217.909 107.988 217.44C108.478 216.971 108.724 216.325 108.724 215.504V210.688H110.388V213.28ZM104.436 210.304V208.736H106.356V210.304H104.436ZM115.732 214.272C116.062 214.272 116.329 214.187 116.532 214.016C116.734 213.835 116.836 213.584 116.836 213.264V210.688H118.5V213.312C118.5 214.155 118.249 214.816 117.748 215.296C117.257 215.765 116.585 216 115.732 216H111.844C111.737 216 111.684 215.723 111.684 215.168C111.684 214.571 111.737 214.272 111.844 214.272H115.732ZM116.356 217.872V219.408H112.004V217.872H116.356ZM128.488 214.272C128.594 214.272 128.648 214.571 128.648 215.168C128.648 215.723 128.594 216 128.488 216H127.064C126.957 217.216 126.536 218.165 125.8 218.848C125.074 219.531 124.12 219.872 122.936 219.872H120.872L120.728 218.144H122.984C123.741 218.144 124.338 217.952 124.776 217.568C125.213 217.184 125.437 216.661 125.448 216H124.072C122.941 216 122.13 215.771 121.64 215.312C121.149 214.843 120.904 214.112 120.904 213.12C120.904 212.437 121.032 211.835 121.288 211.312C121.554 210.789 121.922 210.384 122.392 210.096C122.872 209.797 123.421 209.648 124.04 209.648C124.989 209.648 125.736 209.968 126.28 210.608C126.824 211.237 127.096 212.101 127.096 213.2V214.272H128.488ZM122.568 213.04C122.568 213.488 122.685 213.808 122.92 214C123.154 214.181 123.565 214.272 124.152 214.272H125.448V213.232C125.448 212.603 125.32 212.128 125.064 211.808C124.808 211.477 124.44 211.312 123.96 211.312C123.522 211.312 123.181 211.472 122.936 211.792C122.69 212.101 122.568 212.517 122.568 213.04ZM132.852 214.272C133.258 214.272 133.572 214.203 133.796 214.064C134.02 213.915 134.132 213.717 134.132 213.472C134.132 213.269 134.084 213.083 133.988 212.912C133.892 212.741 133.738 212.544 133.524 212.32L129.908 208.752V207.36L135.828 205.04L136.324 206.624L131.892 208.32L134.772 211.232C135.444 211.893 135.78 212.656 135.78 213.52C135.78 214.256 135.524 214.853 135.012 215.312C134.5 215.771 133.78 216 132.852 216H128.484C128.378 216 128.324 215.723 128.324 215.168C128.324 214.571 128.378 214.272 128.484 214.272H132.852ZM150.6 214.272C150.941 214.272 151.213 214.187 151.416 214.016C151.629 213.835 151.736 213.589 151.736 213.28V210.688H153.4V213.2C153.4 213.915 153.768 214.272 154.504 214.272H155.048C155.154 214.272 155.208 214.571 155.208 215.168C155.208 215.723 155.154 216 155.048 216H154.44C153.49 216 152.861 215.712 152.552 215.136C152.178 215.712 151.528 216 150.6 216H145.112C144.162 216 143.442 215.755 142.952 215.264C142.461 214.763 142.216 214.059 142.216 213.152V210.688H143.864V212.928C143.864 213.376 143.97 213.712 144.184 213.936C144.397 214.16 144.733 214.272 145.192 214.272H150.6ZM149.976 207.936V209.472H145.624V207.936H149.976ZM156.967 214.272C157.308 214.272 157.58 214.187 157.783 214.016C157.996 213.835 158.103 213.584 158.103 213.264V210.688H159.767V213.2C159.767 213.915 160.135 214.272 160.871 214.272H161.415C161.522 214.272 161.575 214.565 161.575 215.152C161.575 215.717 161.522 216 161.415 216H160.807C159.858 216 159.228 215.712 158.919 215.136C158.546 215.712 157.895 216 156.967 216H155.047C154.94 216 154.887 215.723 154.887 215.168C154.887 214.571 154.94 214.272 155.047 214.272H156.967ZM158.375 217.872V219.408H154.023V217.872H158.375ZM165.822 213.312C165.822 214.155 165.571 214.816 165.07 215.296C164.569 215.765 163.897 216 163.054 216H161.422C161.315 216 161.262 215.723 161.262 215.168C161.262 214.571 161.315 214.272 161.422 214.272H163.054C163.385 214.272 163.651 214.187 163.854 214.016C164.057 213.835 164.158 213.584 164.158 213.264V210.688H165.822V213.312ZM161.742 219.44V217.872H163.662V219.44H161.742Z" fill="#E6AE1F"/>
</g>
<path d="M87.3539 240.144C88.1752 240.144 88.8152 239.909 89.2739 239.44C89.7432 238.981 89.9779 238.331 89.9779 237.488V232.688H91.6419V235.152C91.6419 235.899 92.0472 236.272 92.8579 236.272H93.0819C93.1885 236.272 93.2419 236.571 93.2419 237.168C93.2419 237.723 93.1885 238 93.0819 238H92.8579C92.5912 238 92.3459 237.963 92.1219 237.888C91.9085 237.803 91.7485 237.691 91.6419 237.552V237.648C91.6205 238.48 91.4285 239.216 91.0659 239.856C90.7139 240.496 90.2179 240.992 89.5779 241.344C88.9485 241.696 88.2125 241.872 87.3699 241.872H86.9059L86.7619 240.144H87.3539ZM96.0701 236.272C96.4115 236.272 96.6835 236.187 96.8861 236.016C97.0995 235.835 97.2061 235.584 97.2061 235.264V232.688H98.8541V235.2C98.8541 235.915 99.2221 236.272 99.9581 236.272H100.518C100.625 236.272 100.678 236.565 100.678 237.152C100.678 237.717 100.625 238 100.518 238H99.8941C98.9555 238 98.3315 237.712 98.0221 237.136C97.6488 237.712 96.9981 238 96.0701 238H93.0781C92.9715 238 92.9181 237.723 92.9181 237.168C92.9181 236.571 92.9715 236.272 93.0781 236.272H96.0701ZM98.9501 229.296V230.832H94.5981V229.296H98.9501ZM104.916 235.312C104.916 236.155 104.665 236.816 104.164 237.296C103.662 237.765 102.99 238 102.148 238H100.516C100.409 238 100.356 237.723 100.356 237.168C100.356 236.571 100.409 236.272 100.516 236.272H102.148C102.478 236.272 102.745 236.187 102.948 236.016C103.15 235.835 103.252 235.584 103.252 235.264V232.688H104.916V235.312ZM105.348 229.328V230.864H100.996V229.328H105.348ZM113.94 228.064L110.66 228.576V230.192L112.18 229.936V238H113.94V228.064ZM117.815 236.832H116.311L115.879 239.824H117.127L117.815 236.832ZM123.617 238.16C125.014 238.16 126.049 237.733 126.721 236.88C127.403 236.027 127.745 234.805 127.745 233.216C127.745 231.509 127.419 230.224 126.769 229.36C126.118 228.496 125.067 228.064 123.617 228.064C122.155 228.064 121.094 228.496 120.433 229.36C119.782 230.224 119.457 231.509 119.457 233.216C119.457 234.805 119.798 236.027 120.481 236.88C121.163 237.733 122.209 238.16 123.617 238.16ZM123.617 236.512C122.795 236.512 122.193 236.224 121.809 235.648C121.435 235.061 121.249 234.251 121.249 233.216C121.249 232.032 121.425 231.152 121.777 230.576C122.139 229.989 122.753 229.696 123.617 229.696C124.481 229.696 125.089 229.989 125.441 230.576C125.803 231.152 125.985 232.032 125.985 233.216C125.985 234.251 125.793 235.061 125.409 235.648C125.035 236.224 124.438 236.512 123.617 236.512ZM133.01 238.16C134.204 238.16 135.1 237.867 135.698 237.28C136.295 236.683 136.594 235.872 136.594 234.848C136.594 232.725 135.522 231.664 133.378 231.664C133.004 231.664 132.604 231.728 132.178 231.856C131.762 231.973 131.388 232.149 131.058 232.384V231.808C131.058 231.147 131.276 230.592 131.714 230.144C132.162 229.696 132.78 229.472 133.57 229.472C134.37 229.472 135.079 229.595 135.698 229.84V228.416C135.122 228.181 134.348 228.064 133.378 228.064C132.567 228.064 131.863 228.24 131.266 228.592C130.668 228.933 130.21 229.419 129.89 230.048C129.57 230.667 129.41 231.381 129.41 232.192V234.32C129.41 235.611 129.708 236.576 130.306 237.216C130.914 237.845 131.815 238.16 133.01 238.16ZM133.026 236.784C132.364 236.784 131.868 236.619 131.538 236.288C131.218 235.947 131.058 235.424 131.058 234.72V233.712C131.346 233.509 131.666 233.349 132.018 233.232C132.38 233.104 132.727 233.04 133.058 233.04C133.751 233.04 134.252 233.2 134.562 233.52C134.871 233.84 135.026 234.304 135.026 234.912C135.026 235.488 134.85 235.947 134.498 236.288C134.156 236.619 133.666 236.784 133.026 236.784ZM141.838 238.16C143.033 238.16 143.929 237.867 144.526 237.28C145.123 236.683 145.422 235.872 145.422 234.848C145.422 232.725 144.35 231.664 142.206 231.664C141.833 231.664 141.433 231.728 141.006 231.856C140.59 231.973 140.217 232.149 139.886 232.384V231.808C139.886 231.147 140.105 230.592 140.542 230.144C140.99 229.696 141.609 229.472 142.398 229.472C143.198 229.472 143.907 229.595 144.526 229.84V228.416C143.95 228.181 143.177 228.064 142.206 228.064C141.395 228.064 140.691 228.24 140.094 228.592C139.497 228.933 139.038 229.419 138.718 230.048C138.398 230.667 138.238 231.381 138.238 232.192V234.32C138.238 235.611 138.537 236.576 139.134 237.216C139.742 237.845 140.643 238.16 141.838 238.16ZM141.854 236.784C141.193 236.784 140.697 236.619 140.366 236.288C140.046 235.947 139.886 235.424 139.886 234.72V233.712C140.174 233.509 140.494 233.349 140.846 233.232C141.209 233.104 141.555 233.04 141.886 233.04C142.579 233.04 143.081 233.2 143.39 233.52C143.699 233.84 143.854 234.304 143.854 234.912C143.854 235.488 143.678 235.947 143.326 236.288C142.985 236.619 142.494 236.784 141.854 236.784Z" fill="#2E3133"/>
<path d="M90.6331 260.503C90.3385 260.967 89.6615 260.967 89.3669 260.503L85.9685 255.152C85.6514 254.653 86.0101 254 86.6016 254H93.3984C93.9899 254 94.3486 254.653 94.0315 255.152L90.6331 260.503Z" fill="#F75B46"/>
<path d="M103.447 259.12C104.495 259.12 105.271 258.8 105.775 258.16C106.287 257.52 106.543 256.604 106.543 255.412C106.543 254.132 106.299 253.168 105.811 252.52C105.323 251.872 104.535 251.548 103.447 251.548C102.351 251.548 101.555 251.872 101.059 252.52C100.571 253.168 100.327 254.132 100.327 255.412C100.327 256.604 100.583 257.52 101.095 258.16C101.607 258.8 102.391 259.12 103.447 259.12ZM103.447 257.884C102.831 257.884 102.379 257.668 102.091 257.236C101.811 256.796 101.671 256.188 101.671 255.412C101.671 254.524 101.803 253.864 102.067 253.432C102.339 252.992 102.799 252.772 103.447 252.772C104.095 252.772 104.551 252.992 104.815 253.432C105.087 253.864 105.223 254.524 105.223 255.412C105.223 256.188 105.079 256.796 104.791 257.236C104.511 257.668 104.063 257.884 103.447 257.884ZM108.836 259C108.58 259 108.388 258.936 108.26 258.808C108.14 258.68 108.08 258.472 108.08 258.184C108.08 257.896 108.14 257.696 108.26 257.584C108.38 257.464 108.572 257.404 108.836 257.404C109.1 257.404 109.292 257.464 109.412 257.584C109.54 257.696 109.604 257.896 109.604 258.184C109.604 258.472 109.54 258.68 109.412 258.808C109.284 258.936 109.092 259 108.836 259ZM112.86 257.884C112.964 257.62 113.112 257.38 113.304 257.164C113.496 256.948 113.768 256.676 114.12 256.348L114.336 256.144C114.68 255.832 114.944 255.564 115.128 255.34C115.32 255.108 115.468 254.86 115.572 254.596C115.676 254.332 115.728 254.028 115.728 253.684C115.728 253.02 115.52 252.5 115.104 252.124C114.696 251.74 114.1 251.548 113.316 251.548C112.964 251.548 112.612 251.58 112.26 251.644C111.908 251.708 111.608 251.792 111.36 251.896V253.12C111.912 252.888 112.472 252.772 113.04 252.772C113.496 252.772 113.836 252.872 114.06 253.072C114.284 253.272 114.396 253.548 114.396 253.9C114.396 254.132 114.352 254.344 114.264 254.536C114.176 254.728 114.032 254.936 113.832 255.16C113.64 255.376 113.348 255.664 112.956 256.024C112.5 256.432 112.12 256.812 111.816 257.164C111.52 257.508 111.284 257.884 111.108 258.292V259H115.8V257.884H112.86ZM119.054 259.12C119.926 259.12 120.594 258.908 121.058 258.484C121.522 258.06 121.754 257.48 121.754 256.744C121.754 255.96 121.554 255.392 121.154 255.04C120.762 254.688 120.162 254.512 119.354 254.512H118.226L118.334 252.772H121.19L121.286 251.656H117.218L117.026 254.764V255.496H119.066C119.57 255.496 119.922 255.592 120.122 255.784C120.33 255.968 120.434 256.272 120.434 256.696C120.434 257.12 120.302 257.444 120.038 257.668C119.774 257.892 119.386 258.004 118.874 258.004C118.586 258.004 118.278 257.972 117.95 257.908C117.622 257.844 117.326 257.756 117.062 257.644V258.76C117.31 258.872 117.622 258.96 117.998 259.024C118.374 259.088 118.726 259.12 119.054 259.12ZM127.339 255.124C127.339 255.932 127.443 256.604 127.651 257.14C127.859 257.668 128.235 258.196 128.779 258.724L128.047 259.42C127.351 258.828 126.851 258.196 126.547 257.524C126.251 256.852 126.103 256.052 126.103 255.124C126.103 254.196 126.251 253.396 126.547 252.724C126.851 252.052 127.351 251.42 128.047 250.828L128.779 251.536C128.235 252.064 127.859 252.592 127.651 253.12C127.443 253.648 127.339 254.316 127.339 255.124ZM132.752 251.548L130.292 251.932V253.144L131.432 252.952V259H132.752V251.548ZM136.222 259.12C137.094 259.12 137.762 258.908 138.226 258.484C138.69 258.06 138.922 257.48 138.922 256.744C138.922 255.96 138.722 255.392 138.322 255.04C137.93 254.688 137.33 254.512 136.522 254.512H135.394L135.502 252.772H138.358L138.454 251.656H134.386L134.194 254.764V255.496H136.234C136.738 255.496 137.09 255.592 137.29 255.784C137.498 255.968 137.602 256.272 137.602 256.696C137.602 257.12 137.47 257.444 137.206 257.668C136.942 257.892 136.554 258.004 136.042 258.004C135.754 258.004 135.446 257.972 135.118 257.908C134.79 257.844 134.494 257.756 134.23 257.644V258.76C134.478 258.872 134.79 258.96 135.166 259.024C135.542 259.088 135.894 259.12 136.222 259.12ZM143.291 259.12C144.339 259.12 145.115 258.8 145.619 258.16C146.131 257.52 146.387 256.604 146.387 255.412C146.387 254.132 146.143 253.168 145.655 252.52C145.167 251.872 144.379 251.548 143.291 251.548C142.195 251.548 141.399 251.872 140.903 252.52C140.415 253.168 140.171 254.132 140.171 255.412C140.171 256.604 140.427 257.52 140.939 258.16C141.451 258.8 142.235 259.12 143.291 259.12ZM143.291 257.884C142.675 257.884 142.223 257.668 141.935 257.236C141.655 256.796 141.515 256.188 141.515 255.412C141.515 254.524 141.647 253.864 141.911 253.432C142.183 252.992 142.643 252.772 143.291 252.772C143.939 252.772 144.395 252.992 144.659 253.432C144.931 253.864 145.067 254.524 145.067 255.412C145.067 256.188 144.923 256.796 144.635 257.236C144.355 257.668 143.907 257.884 143.291 257.884ZM149.363 255.124C149.363 254.316 149.259 253.648 149.051 253.12C148.843 252.592 148.467 252.064 147.923 251.536L148.655 250.828C149.351 251.42 149.847 252.052 150.143 252.724C150.447 253.396 150.599 254.196 150.599 255.124C150.599 256.052 150.447 256.852 150.143 257.524C149.847 258.196 149.351 258.828 148.655 259.42L147.923 258.724C148.467 258.196 148.843 257.668 149.051 257.14C149.259 256.604 149.363 255.932 149.363 255.124Z" fill="#F75B46"/>
<rect x="25" y="327" width="185" height="207" rx="49" fill="#2150F5"/>
<path d="M117.5 365C135.177 365 149.5 379.331 149.5 397C149.5 414.669 135.169 429 117.5 429C99.8313 429 85.5 414.669 85.5 397C85.5 379.331 99.8313 365 117.5 365Z" fill="black"/>
<path d="M109.218 393.558L114.058 388.726L115.084 387.709L117.509 385.285L125.748 393.558L130.554 388.726L117.509 375.664L104.42 388.726L109.218 393.558Z" fill="white"/>
<path d="M117.514 392.176L112.696 396.994L117.514 401.812L122.332 396.994L117.514 392.176Z" fill="white"/>
<path d="M125.748 400.442L117.5 408.689L114.606 405.795L114.076 405.265L109.218 400.442L104.42 405.248L117.509 418.31L130.554 405.248L125.748 400.442Z" fill="white"/>
<path d="M100.982 392.182L96.164 397L100.982 401.818L105.8 397L100.982 392.182Z" fill="white"/>
<path d="M134.014 392.184L129.196 397.002L134.014 401.82L138.832 397.002L134.014 392.184Z" fill="white"/>
<g clip-path="url(#clip3_29_1243)">
<rect x="57" y="429" width="121" height="24" rx="6" fill="#2150F5"/>
<path d="M68.92 445C69.88 445 70.6053 444.765 71.096 444.296C71.5973 443.816 71.848 443.101 71.848 442.152C71.848 441.533 71.72 441.048 71.464 440.696C71.2187 440.344 70.856 440.099 70.376 439.96C70.728 439.768 71 439.496 71.192 439.144C71.3947 438.781 71.496 438.349 71.496 437.848C71.496 436.088 70.5733 435.208 68.728 435.208H64.12V445H68.92ZM68.296 436.552C68.872 436.552 69.272 436.675 69.496 436.92C69.7307 437.155 69.848 437.517 69.848 438.008C69.848 438.925 69.3787 439.384 68.44 439.384H65.768V436.552H68.296ZM68.392 440.616C68.9467 440.616 69.3627 440.728 69.64 440.952C69.9173 441.165 70.056 441.539 70.056 442.072C70.056 442.627 69.9333 443.032 69.688 443.288C69.4427 443.533 69.0533 443.656 68.52 443.656H65.768V440.616H68.392ZM75.5206 438.264L80.1766 445H81.7126V435.208H79.9366V441.96L75.2806 435.208H73.7606V445H75.5206V438.264ZM88.7325 445C89.6925 445 90.4178 444.765 90.9085 444.296C91.4098 443.816 91.6605 443.101 91.6605 442.152C91.6605 441.533 91.5325 441.048 91.2765 440.696C91.0312 440.344 90.6685 440.099 90.1885 439.96C90.5405 439.768 90.8125 439.496 91.0045 439.144C91.2072 438.781 91.3085 438.349 91.3085 437.848C91.3085 436.088 90.3858 435.208 88.5405 435.208H83.9325V445H88.7325ZM88.1085 436.552C88.6845 436.552 89.0845 436.675 89.3085 436.92C89.5432 437.155 89.6605 437.517 89.6605 438.008C89.6605 438.925 89.1912 439.384 88.2525 439.384H85.5805V436.552H88.1085ZM88.2045 440.616C88.7592 440.616 89.1752 440.728 89.4525 440.952C89.7298 441.165 89.8685 441.539 89.8685 442.072C89.8685 442.627 89.7458 443.032 89.5005 443.288C89.2552 443.533 88.8658 443.656 88.3325 443.656H85.5805V440.616H88.2045Z" fill="#E6AE1F"/>
<path d="M106.732 441.28C106.732 441.589 106.822 441.835 107.004 442.016C107.196 442.187 107.468 442.272 107.82 442.272H108.188C108.294 442.272 108.348 442.571 108.348 443.168C108.348 443.723 108.294 444 108.188 444H107.884C107.638 444 107.409 443.968 107.196 443.904C106.993 443.84 106.838 443.76 106.732 443.664V443.744C106.71 444.544 106.513 445.259 106.14 445.888C105.766 446.517 105.249 447.003 104.588 447.344C103.926 447.696 103.169 447.872 102.316 447.872H101.644C100.278 447.872 99.2275 447.477 98.4915 446.688C97.7555 445.909 97.3875 444.811 97.3875 443.392V440.288H99.0355V443.36C99.0355 445.216 99.9102 446.144 101.66 446.144H102.316C103.169 446.144 103.841 445.909 104.332 445.44C104.822 444.971 105.068 444.325 105.068 443.504V438.688H106.732V441.28ZM100.78 438.304V436.736H102.7V438.304H100.78ZM112.076 442.272C112.406 442.272 112.673 442.187 112.876 442.016C113.078 441.835 113.18 441.584 113.18 441.264V438.688H114.844V441.312C114.844 442.155 114.593 442.816 114.092 443.296C113.601 443.765 112.929 444 112.076 444H108.188C108.081 444 108.027 443.723 108.027 443.168C108.027 442.571 108.081 442.272 108.188 442.272H112.076ZM112.7 445.872V447.408H108.348V445.872H112.7ZM124.831 442.272C124.938 442.272 124.991 442.571 124.991 443.168C124.991 443.723 124.938 444 124.831 444H123.407C123.301 445.216 122.879 446.165 122.143 446.848C121.418 447.531 120.463 447.872 119.279 447.872H117.215L117.071 446.144H119.327C120.085 446.144 120.682 445.952 121.119 445.568C121.557 445.184 121.781 444.661 121.791 444H120.415C119.285 444 118.474 443.771 117.983 443.312C117.493 442.843 117.247 442.112 117.247 441.12C117.247 440.437 117.375 439.835 117.631 439.312C117.898 438.789 118.266 438.384 118.735 438.096C119.215 437.797 119.765 437.648 120.383 437.648C121.333 437.648 122.079 437.968 122.623 438.608C123.167 439.237 123.439 440.101 123.439 441.2V442.272H124.831ZM118.911 441.04C118.911 441.488 119.029 441.808 119.263 442C119.498 442.181 119.909 442.272 120.495 442.272H121.791V441.232C121.791 440.603 121.663 440.128 121.407 439.808C121.151 439.477 120.783 439.312 120.303 439.312C119.866 439.312 119.525 439.472 119.279 439.792C119.034 440.101 118.911 440.517 118.911 441.04ZM129.196 442.272C129.601 442.272 129.916 442.203 130.14 442.064C130.364 441.915 130.476 441.717 130.476 441.472C130.476 441.269 130.428 441.083 130.332 440.912C130.236 440.741 130.081 440.544 129.868 440.32L126.252 436.752V435.36L132.172 433.04L132.668 434.624L128.236 436.32L131.1 439.216C132.081 440.187 132.801 440.88 133.26 441.296C133.729 441.701 134.103 441.968 134.38 442.096C134.657 442.213 134.977 442.272 135.34 442.272C135.447 442.272 135.5 442.571 135.5 443.168C135.5 443.723 135.447 444 135.34 444C134.839 444 134.428 443.963 134.108 443.888C133.799 443.803 133.479 443.643 133.148 443.408C132.828 443.173 132.417 442.805 131.916 442.304C131.799 442.827 131.5 443.243 131.02 443.552C130.54 443.851 129.932 444 129.196 444H124.828C124.721 444 124.668 443.723 124.668 443.168C124.668 442.571 124.721 442.272 124.828 442.272H129.196ZM136.608 442.272C137.045 442.272 137.376 442.176 137.6 441.984C137.824 441.781 137.936 441.499 137.936 441.136V438.688H139.6V441.136C139.6 441.893 140.032 442.272 140.896 442.272C141.333 442.272 141.664 442.176 141.888 441.984C142.112 441.781 142.224 441.499 142.224 441.136V438.688H143.888V441.136C143.888 441.499 143.989 441.781 144.192 441.984C144.394 442.176 144.698 442.272 145.104 442.272C145.52 442.272 145.829 442.176 146.032 441.984C146.245 441.781 146.352 441.499 146.352 441.136V438.688H148V441.136C148 441.893 148.368 442.272 149.104 442.272H149.664C149.77 442.272 149.824 442.571 149.824 443.168C149.824 443.723 149.77 444 149.664 444H149.104C148.581 444 148.154 443.931 147.824 443.792C147.504 443.653 147.264 443.435 147.104 443.136C146.901 443.435 146.634 443.653 146.304 443.792C145.984 443.931 145.584 444 145.104 444C144.016 444 143.312 443.691 142.992 443.072C142.576 443.691 141.877 444 140.896 444C140.298 444 139.824 443.925 139.472 443.776C139.12 443.616 138.864 443.381 138.704 443.072C138.288 443.691 137.589 444 136.608 444H135.344C135.237 444 135.184 443.723 135.184 443.168C135.184 442.571 135.237 442.272 135.344 442.272H136.608ZM151.576 442.272C151.918 442.272 152.19 442.187 152.392 442.016C152.606 441.835 152.712 441.584 152.712 441.264V438.688H154.376V441.2C154.376 441.915 154.744 442.272 155.48 442.272H156.024C156.131 442.272 156.184 442.565 156.184 443.152C156.184 443.717 156.131 444 156.024 444H155.416C154.467 444 153.838 443.712 153.528 443.136C153.155 443.712 152.504 444 151.576 444H149.656C149.55 444 149.496 443.723 149.496 443.168C149.496 442.571 149.55 442.272 149.656 442.272H151.576ZM152.36 436.864V435.296H154.28V436.864H152.36ZM157.951 442.272C158.293 442.272 158.565 442.187 158.767 442.016C158.981 441.835 159.087 441.584 159.087 441.264V438.688H160.751V441.2C160.751 441.915 161.119 442.272 161.855 442.272H162.399C162.506 442.272 162.559 442.565 162.559 443.152C162.559 443.717 162.506 444 162.399 444H161.791C160.842 444 160.213 443.712 159.903 443.136C159.53 443.712 158.879 444 157.951 444H156.031C155.925 444 155.871 443.723 155.871 443.168C155.871 442.571 155.925 442.272 156.031 442.272H157.951ZM158.735 436.864V435.296H160.655V436.864H158.735ZM166.806 441.312C166.806 442.155 166.556 442.816 166.054 443.296C165.553 443.765 164.881 444 164.038 444H162.406C162.3 444 162.246 443.723 162.246 443.168C162.246 442.571 162.3 442.272 162.406 442.272H164.038C164.369 442.272 164.636 442.187 164.838 442.016C165.041 441.835 165.142 441.584 165.142 441.264V438.688H166.806V441.312ZM165.862 445.872V447.408H161.51V445.872H165.862ZM172.416 442.272C172.47 442.272 172.507 442.331 172.528 442.448C172.56 442.565 172.576 442.805 172.576 443.168C172.576 443.509 172.56 443.733 172.528 443.84C172.507 443.947 172.47 444 172.416 444H171.936C171.083 444 170.438 443.749 170 443.248C169.563 442.747 169.344 442.037 169.344 441.12V433.664H170.992V441.008C170.992 441.445 171.072 441.765 171.232 441.968C171.403 442.171 171.67 442.272 172.032 442.272H172.416ZM176.822 441.312C176.822 442.155 176.571 442.816 176.07 443.296C175.569 443.765 174.897 444 174.054 444H172.422C172.315 444 172.262 443.723 172.262 443.168C172.262 442.571 172.315 442.272 172.422 442.272H174.054C174.385 442.272 174.651 442.187 174.854 442.016C175.057 441.835 175.158 441.584 175.158 441.264V438.688H176.822V441.312ZM172.742 447.44V445.872H174.662V447.44H172.742Z" fill="#E6AE1F"/>
</g>
<path d="M85.4945 471.144C86.3158 471.144 86.9558 470.909 87.4145 470.44C87.8838 469.981 88.1185 469.331 88.1185 468.488V463.688H89.7825V466.152C89.7825 466.899 90.1878 467.272 90.9985 467.272H91.2225C91.3292 467.272 91.3825 467.571 91.3825 468.168C91.3825 468.723 91.3292 469 91.2225 469H90.9985C90.7318 469 90.4865 468.963 90.2625 468.888C90.0492 468.803 89.8892 468.691 89.7825 468.552V468.648C89.7612 469.48 89.5692 470.216 89.2065 470.856C88.8545 471.496 88.3585 471.992 87.7185 472.344C87.0892 472.696 86.3532 472.872 85.5105 472.872H85.0465L84.9025 471.144H85.4945ZM94.2108 467.272C94.5521 467.272 94.8241 467.187 95.0268 467.016C95.2401 466.835 95.3468 466.584 95.3468 466.264V463.688H96.9948V466.2C96.9948 466.915 97.3628 467.272 98.0988 467.272H98.6588C98.7654 467.272 98.8188 467.565 98.8188 468.152C98.8188 468.717 98.7654 469 98.6588 469H98.0348C97.0961 469 96.4721 468.712 96.1628 468.136C95.7894 468.712 95.1388 469 94.2108 469H91.2188C91.1121 469 91.0587 468.723 91.0587 468.168C91.0587 467.571 91.1121 467.272 91.2188 467.272H94.2108ZM97.0908 460.296V461.832H92.7388V460.296H97.0908ZM103.056 466.312C103.056 467.155 102.806 467.816 102.304 468.296C101.803 468.765 101.131 469 100.288 469H98.6562C98.5496 469 98.4962 468.723 98.4962 468.168C98.4962 467.571 98.5496 467.272 98.6562 467.272H100.288C100.619 467.272 100.886 467.187 101.088 467.016C101.291 466.835 101.392 466.584 101.392 466.264V463.688H103.056V466.312ZM103.488 460.328V461.864H99.1363V460.328H103.488ZM114.88 466.904H115.792V465.352H114.88V459.208H113.344L108.512 465.576V466.904H113.12V469H114.88V466.904ZM113.392 465.432H110.192L113.392 461.32V465.432ZM119.127 467.832H117.623L117.191 470.824H118.439L119.127 467.832ZM123.473 469.16C124.636 469.16 125.526 468.877 126.145 468.312C126.764 467.747 127.073 466.973 127.073 465.992C127.073 464.947 126.806 464.189 126.273 463.72C125.75 463.251 124.95 463.016 123.873 463.016H122.369L122.513 460.696H126.321L126.449 459.208H121.025L120.769 463.352V464.328H123.489C124.161 464.328 124.63 464.456 124.897 464.712C125.174 464.957 125.313 465.363 125.313 465.928C125.313 466.493 125.137 466.925 124.785 467.224C124.433 467.523 123.916 467.672 123.233 467.672C122.849 467.672 122.438 467.629 122.001 467.544C121.564 467.459 121.169 467.341 120.817 467.192V468.68C121.148 468.829 121.564 468.947 122.065 469.032C122.566 469.117 123.036 469.16 123.473 469.16ZM134.818 466.904H135.73V465.352H134.818V459.208H133.282L128.45 465.576V466.904H133.058V469H134.818V466.904ZM133.33 465.432H130.13L133.33 461.32V465.432ZM141.273 469.16C142.67 469.16 143.705 468.733 144.377 467.88C145.06 467.027 145.401 465.805 145.401 464.216C145.401 462.509 145.076 461.224 144.425 460.36C143.774 459.496 142.724 459.064 141.273 459.064C139.812 459.064 138.75 459.496 138.089 460.36C137.438 461.224 137.113 462.509 137.113 464.216C137.113 465.805 137.454 467.027 138.137 467.88C138.82 468.733 139.865 469.16 141.273 469.16ZM141.273 467.512C140.452 467.512 139.849 467.224 139.465 466.648C139.092 466.061 138.905 465.251 138.905 464.216C138.905 463.032 139.081 462.152 139.433 461.576C139.796 460.989 140.409 460.696 141.273 460.696C142.137 460.696 142.745 460.989 143.097 461.576C143.46 462.152 143.641 463.032 143.641 464.216C143.641 465.251 143.449 466.061 143.065 466.648C142.692 467.224 142.094 467.512 141.273 467.512Z" fill="#2E3133"/>
<path d="M90.1331 491.503C89.8385 491.967 89.1615 491.967 88.8669 491.503L85.4685 486.152C85.1514 485.653 85.5101 485 86.1016 485H92.8984C93.4899 485 93.8486 485.653 93.5315 486.152L90.1331 491.503Z" fill="#F75B46"/>
<path d="M102.947 490.12C103.995 490.12 104.771 489.8 105.275 489.16C105.787 488.52 106.043 487.604 106.043 486.412C106.043 485.132 105.799 484.168 105.311 483.52C104.823 482.872 104.035 482.548 102.947 482.548C101.851 482.548 101.055 482.872 100.559 483.52C100.071 484.168 99.8268 485.132 99.8268 486.412C99.8268 487.604 100.083 488.52 100.595 489.16C101.107 489.8 101.891 490.12 102.947 490.12ZM102.947 488.884C102.331 488.884 101.879 488.668 101.591 488.236C101.311 487.796 101.171 487.188 101.171 486.412C101.171 485.524 101.303 484.864 101.567 484.432C101.839 483.992 102.299 483.772 102.947 483.772C103.595 483.772 104.051 483.992 104.315 484.432C104.587 484.864 104.723 485.524 104.723 486.412C104.723 487.188 104.579 487.796 104.291 488.236C104.011 488.668 103.563 488.884 102.947 488.884ZM108.336 490C108.08 490 107.888 489.936 107.76 489.808C107.64 489.68 107.58 489.472 107.58 489.184C107.58 488.896 107.64 488.696 107.76 488.584C107.88 488.464 108.072 488.404 108.336 488.404C108.6 488.404 108.792 488.464 108.912 488.584C109.04 488.696 109.104 488.896 109.104 489.184C109.104 489.472 109.04 489.68 108.912 489.808C108.784 489.936 108.592 490 108.336 490ZM112.36 488.884C112.464 488.62 112.612 488.38 112.804 488.164C112.996 487.948 113.268 487.676 113.62 487.348L113.836 487.144C114.18 486.832 114.444 486.564 114.628 486.34C114.82 486.108 114.968 485.86 115.072 485.596C115.176 485.332 115.228 485.028 115.228 484.684C115.228 484.02 115.02 483.5 114.604 483.124C114.196 482.74 113.6 482.548 112.816 482.548C112.464 482.548 112.112 482.58 111.76 482.644C111.408 482.708 111.108 482.792 110.86 482.896V484.12C111.412 483.888 111.972 483.772 112.54 483.772C112.996 483.772 113.336 483.872 113.56 484.072C113.784 484.272 113.896 484.548 113.896 484.9C113.896 485.132 113.852 485.344 113.764 485.536C113.676 485.728 113.532 485.936 113.332 486.16C113.14 486.376 112.848 486.664 112.456 487.024C112 487.432 111.62 487.812 111.316 488.164C111.02 488.508 110.784 488.884 110.608 489.292V490H115.3V488.884H112.36ZM118.554 490.12C119.426 490.12 120.094 489.908 120.558 489.484C121.022 489.06 121.254 488.48 121.254 487.744C121.254 486.96 121.054 486.392 120.654 486.04C120.262 485.688 119.662 485.512 118.854 485.512H117.726L117.834 483.772H120.69L120.786 482.656H116.718L116.526 485.764V486.496H118.566C119.07 486.496 119.422 486.592 119.622 486.784C119.83 486.968 119.934 487.272 119.934 487.696C119.934 488.12 119.802 488.444 119.538 488.668C119.274 488.892 118.886 489.004 118.374 489.004C118.086 489.004 117.778 488.972 117.45 488.908C117.122 488.844 116.826 488.756 116.562 488.644V489.76C116.81 489.872 117.122 489.96 117.498 490.024C117.874 490.088 118.226 490.12 118.554 490.12ZM126.839 486.124C126.839 486.932 126.943 487.604 127.151 488.14C127.359 488.668 127.735 489.196 128.279 489.724L127.547 490.42C126.851 489.828 126.351 489.196 126.047 488.524C125.751 487.852 125.603 487.052 125.603 486.124C125.603 485.196 125.751 484.396 126.047 483.724C126.351 483.052 126.851 482.42 127.547 481.828L128.279 482.536C127.735 483.064 127.359 483.592 127.151 484.12C126.943 484.648 126.839 485.316 126.839 486.124ZM132.252 482.548L129.792 482.932V484.144L130.932 483.952V490H132.252V482.548ZM135.722 490.12C136.594 490.12 137.262 489.908 137.726 489.484C138.19 489.06 138.422 488.48 138.422 487.744C138.422 486.96 138.222 486.392 137.822 486.04C137.43 485.688 136.83 485.512 136.022 485.512H134.894L135.002 483.772H137.858L137.954 482.656H133.886L133.694 485.764V486.496H135.734C136.238 486.496 136.59 486.592 136.79 486.784C136.998 486.968 137.102 487.272 137.102 487.696C137.102 488.12 136.97 488.444 136.706 488.668C136.442 488.892 136.054 489.004 135.542 489.004C135.254 489.004 134.946 488.972 134.618 488.908C134.29 488.844 133.994 488.756 133.73 488.644V489.76C133.978 489.872 134.29 489.96 134.666 490.024C135.042 490.088 135.394 490.12 135.722 490.12ZM142.791 490.12C143.839 490.12 144.615 489.8 145.119 489.16C145.631 488.52 145.887 487.604 145.887 486.412C145.887 485.132 145.643 484.168 145.155 483.52C144.667 482.872 143.879 482.548 142.791 482.548C141.695 482.548 140.899 482.872 140.403 483.52C139.915 484.168 139.671 485.132 139.671 486.412C139.671 487.604 139.927 488.52 140.439 489.16C140.951 489.8 141.735 490.12 142.791 490.12ZM142.791 488.884C142.175 488.884 141.723 488.668 141.435 488.236C141.155 487.796 141.015 487.188 141.015 486.412C141.015 485.524 141.147 484.864 141.411 484.432C141.683 483.992 142.143 483.772 142.791 483.772C143.439 483.772 143.895 483.992 144.159 484.432C144.431 484.864 144.567 485.524 144.567 486.412C144.567 487.188 144.423 487.796 144.135 488.236C143.855 488.668 143.407 488.884 142.791 488.884ZM148.863 486.124C148.863 485.316 148.759 484.648 148.551 484.12C148.343 483.592 147.967 483.064 147.423 482.536L148.155 481.828C148.851 482.42 149.347 483.052 149.643 483.724C149.947 484.396 150.099 485.196 150.099 486.124C150.099 487.052 149.947 487.852 149.643 488.524C149.347 489.196 148.851 489.828 148.155 490.42L147.423 489.724C147.967 489.196 148.343 488.668 148.551 488.14C148.759 487.604 148.863 486.932 148.863 486.124Z" fill="#F75B46"/>
<rect x="222" y="327" width="185" height="207" rx="49" fill="#2150F5"/>
<path d="M314.5 427.983C331.611 427.983 345.483 414.112 345.483 397C345.483 379.888 331.611 366.017 314.5 366.017C297.388 366.017 283.517 379.888 283.517 397C283.517 414.112 297.388 427.983 314.5 427.983Z" fill="white"/>
<path d="M318.88 413.096L318.793 413.235C318.715 413.365 318.706 413.374 318.628 413.356C318.585 413.356 318.098 413.339 317.542 413.339H316.534L316.316 413L316.09 412.661L315.925 412.644L315.76 412.626V411.835L315.743 411.045L315.925 410.975C316.551 410.758 317.229 410.28 317.611 409.793C317.803 409.532 317.95 409.237 318.046 408.933C318.115 408.707 318.159 408.142 318.159 407.49C318.159 407.029 318.107 406.847 317.924 406.603C317.768 406.395 317.637 406.299 317.359 406.16L317.125 406.047H315.039C313.266 406.047 312.927 406.047 312.797 406.073C312.423 406.169 312.127 406.464 312.023 406.838C311.971 407.003 311.971 407.073 311.98 407.811C311.997 408.559 311.997 408.62 312.058 408.785C312.353 409.593 313.135 410.262 314.465 410.853L314.882 411.036V411.818L314.9 412.6H314.587L314.335 412.974L314.092 413.348L313.153 413.322C312.64 413.304 312.075 413.295 311.893 413.287L311.571 413.269L311.545 413.174L311.519 413.078H310.58L309.642 413.061V413.148C309.642 413.191 309.659 413.243 309.694 413.278C309.72 413.295 309.833 413.391 309.946 413.487L310.137 413.66L310.163 413.904C310.181 414.034 310.215 414.26 310.25 414.417L310.311 414.695L310.546 414.669L310.78 414.651L310.832 414.869C310.928 415.268 311.067 415.651 311.25 416.007C311.423 416.355 311.502 416.476 311.519 416.45C311.519 416.45 311.589 416.355 311.658 416.25L311.788 416.059L311.762 414.99C311.745 414.399 311.736 413.913 311.745 413.913C311.745 413.913 311.98 413.939 312.24 413.973C313.874 414.208 315.534 414.243 317.177 414.078C317.577 414.043 318.48 413.921 318.611 413.886L318.672 413.869V415.946L318.828 416.198L318.985 416.45L319.028 416.346C319.054 416.285 319.219 415.885 319.393 415.46L319.715 414.669H319.958C320.045 414.669 320.114 414.669 320.201 414.669C320.201 414.651 320.288 414.312 320.401 413.878C320.514 413.461 320.61 413.087 320.636 413.096C320.636 413.07 320.445 413.07 319.775 413.07H318.915L318.88 413.096Z" fill="black"/>
<path d="M314.5 365C296.823 365 282.5 379.331 282.5 397C282.5 414.669 296.831 429 314.5 429C332.169 429 346.5 414.669 346.5 397C346.5 379.331 332.169 365 314.5 365ZM335.358 407.446C335.228 408.307 334.958 409.176 334.533 410.141C334.472 410.28 334.02 411.079 333.907 411.253C333.872 411.305 333.829 411.366 333.811 411.427C333.811 411.444 333.794 411.453 333.785 411.453C333.776 411.453 333.759 411.479 333.759 411.488C333.759 411.496 333.742 411.523 333.733 411.523C333.724 411.523 333.707 411.54 333.716 411.549C333.716 411.566 333.716 411.583 333.69 411.592C333.663 411.592 333.655 411.618 333.663 411.627C333.663 411.644 333.663 411.653 333.637 411.662C333.611 411.662 333.603 411.688 333.611 411.696C333.629 411.714 333.611 411.731 333.585 411.749C333.559 411.766 333.542 411.775 333.559 411.775C333.611 411.775 332.925 412.705 332.455 413.243C331.812 413.982 331.117 414.669 330.378 415.32C325.694 419.397 318.654 422.178 313.883 421.856C309.312 421.543 303.263 418.806 298.813 415.016C296.093 412.705 294.354 410.341 293.798 408.203C293.642 407.612 293.607 407.116 293.633 406.291C293.659 406.291 293.685 406.299 293.72 406.291C295.736 405.995 300.838 405.76 304.662 409.871C304.766 409.984 304.905 410.045 305.053 410.045C305.088 410.045 305.122 410.045 305.157 410.036C305.34 410.002 305.487 409.871 305.557 409.706C305.661 409.428 308.199 402.988 314.943 402.988C321.687 402.988 323.113 409.358 323.174 409.628C323.217 409.81 323.347 409.958 323.521 410.019C323.695 410.08 323.895 410.045 324.034 409.923C328.588 406.169 333.472 406.212 335.367 406.412C335.393 406.412 335.428 406.412 335.454 406.404C335.454 406.708 335.428 407.125 335.393 407.403L335.358 407.446Z" fill="black"/>
<path d="M316.621 415.26C316.482 415.346 316.377 415.381 316.36 415.364C316.334 415.364 316.23 415.268 316.117 415.181L315.917 415.016L315.708 415.242C315.247 415.738 315.239 415.764 315.1 415.772C314.891 415.798 314.848 415.755 314.587 415.373C314.448 415.181 314.344 415.016 314.344 415.016C314.344 415.016 314.248 414.999 314.135 414.99L313.926 414.964L313.831 415.164L313.735 415.364L313.561 415.312C313.422 415.268 313.292 415.216 313.162 415.155L312.936 415.042V414.616H314.935L316.933 414.634V414.834C316.951 415.077 316.96 415.068 316.629 415.251L316.621 415.26Z" fill="black"/>
<path d="M305.522 395.575H305.548H305.583C306.174 395.609 306.921 395.627 307.078 395.592C307.182 395.566 307.278 395.566 307.356 395.557C307.478 395.557 307.669 395.549 307.886 394.627C307.956 394.341 307.912 394.097 307.747 393.854C307.321 393.228 306.322 392.915 306.078 392.881C306.061 392.881 304.245 392.785 303.975 394.462C303.897 394.932 304.071 395.114 304.123 395.175C304.462 395.549 305.27 395.583 305.522 395.575Z" fill="white"/>
<path d="M323.252 395.575H323.278H323.313C323.904 395.609 324.651 395.627 324.808 395.592C324.912 395.566 325.007 395.566 325.086 395.557C325.207 395.557 325.399 395.549 325.616 394.627C325.685 394.341 325.642 394.097 325.477 393.854C325.051 393.228 324.051 392.915 323.808 392.881C323.791 392.881 321.974 392.785 321.705 394.462C321.627 394.932 321.8 395.114 321.853 395.175C322.192 395.549 323 395.583 323.252 395.575Z" fill="white"/>
<path d="M335.341 405.326C335.323 404.987 335.297 404.518 335.271 404.283C334.95 400.876 334.081 398.086 332.421 395.131C332.351 395.019 332.29 394.906 332.256 394.819C332.238 394.793 332.229 394.775 332.229 394.758C332.464 394.063 333.42 391.134 334.176 387.796C335.202 383.26 335.862 377.958 333.863 376.359C333.863 376.359 330.404 376.107 325.781 380.644C324.529 381.895 323.373 383.26 322.357 384.711L322.035 384.607C320.175 383.998 318.237 383.625 316.299 383.494C315.717 383.451 313.527 383.451 312.814 383.494C310.659 383.633 309.007 383.964 307.13 384.615C307.052 384.642 306.991 384.668 306.921 384.694C305.861 383.251 304.679 381.895 303.384 380.661C298.57 376.098 294.98 376.368 294.98 376.368C292.86 378.01 293.581 383.555 294.676 388.248C295.397 391.351 296.284 394.08 296.614 395.062C296.588 395.114 296.562 395.175 296.527 395.227C294.867 398.599 293.937 401.85 293.65 405.282C295.806 404.987 300.838 404.822 304.853 408.655C305.8 406.786 308.833 401.98 314.9 401.98C320.966 401.98 323.26 406.751 323.938 408.672C328.553 405.196 333.359 405.213 335.35 405.404C335.35 405.387 335.35 405.361 335.35 405.343L335.341 405.326ZM306.226 391.82C306.739 391.898 307.999 392.342 308.625 393.254C308.955 393.741 309.059 394.306 308.92 394.879C308.564 396.383 307.973 396.6 307.391 396.626C307.217 396.661 306.922 396.678 306.6 396.678C306.209 396.678 305.792 396.661 305.548 396.644C305.296 396.644 304.027 396.67 303.332 395.896C303.071 395.609 302.793 395.105 302.924 394.297C303.271 392.142 305.34 391.707 306.226 391.829V391.82ZM298.022 392.203C298.022 392.203 295.215 385.18 295.936 381.165C296.058 380.487 296.284 379.896 296.631 379.444C296.631 379.444 299.821 379.757 304.957 385.467C304.957 385.467 303.984 385.936 302.672 386.945C302.672 386.945 302.672 386.945 302.654 386.945C301.238 388.031 299.413 389.761 298.022 392.185V392.203ZM309.946 402.64C309.902 402.727 309.677 402.832 309.416 402.866C309.164 402.901 308.382 402.884 307.938 402.832C306.348 402.623 304.653 402.136 303.419 401.528C302.724 401.189 302.228 400.85 301.863 400.485L301.655 400.268L301.629 399.981C301.594 399.486 301.603 398.703 301.655 398.425C301.69 398.191 301.776 397.965 301.889 397.765C301.93 397.713 302.04 397.687 302.22 397.687C302.55 397.687 302.828 397.739 303.28 397.878C304.201 398.165 305.583 398.851 307.252 399.859C308.634 400.685 309.155 401.093 309.555 401.65C309.824 401.997 310.007 402.484 309.937 402.632L309.946 402.64ZM320.653 394.288C321.001 392.133 323.069 391.699 323.956 391.82C324.468 391.898 325.729 392.342 326.354 393.254C326.685 393.741 326.789 394.306 326.65 394.879C326.294 396.383 325.703 396.6 325.12 396.626C324.946 396.661 324.651 396.678 324.329 396.678C323.938 396.678 323.521 396.661 323.278 396.644C323.026 396.644 321.757 396.67 321.062 395.896C320.801 395.609 320.523 395.105 320.653 394.297V394.288ZM327.649 400.155C327.623 400.277 327.276 400.633 326.919 400.902C325.885 401.658 324.025 402.371 322.139 402.701C321.062 402.892 319.993 402.927 319.671 402.771C319.463 402.667 319.428 402.58 319.506 402.31C319.662 401.745 320.175 401.128 320.975 400.555C321.383 400.259 323.026 399.26 323.791 398.843C325.051 398.147 326.076 397.739 326.763 397.643C326.98 397.617 327.241 397.608 327.328 397.643C327.467 397.695 327.615 398.095 327.675 398.573C327.702 398.825 327.693 399.955 327.649 400.155ZM326.398 386.953H326.381C325.12 385.936 324.173 385.467 324.173 385.467C329.136 379.757 332.212 379.444 332.212 379.444C332.551 379.905 332.768 380.487 332.89 381.165C333.585 385.18 330.874 392.211 330.874 392.211C329.735 390.186 328.214 388.405 326.398 386.962V386.953Z" fill="white"/>
<g clip-path="url(#clip4_29_1243)">
<rect x="276" y="429" width="77" height="24" rx="6" fill="#2150F5"/>
<path d="M285.968 444.16C287.184 444.16 288.107 443.92 288.736 443.44C289.376 442.949 289.696 442.251 289.696 441.344C289.696 440.811 289.611 440.363 289.44 440C289.269 439.627 288.971 439.307 288.544 439.04C288.128 438.763 287.547 438.533 286.8 438.352C286.224 438.213 285.781 438.08 285.472 437.952C285.163 437.813 284.939 437.659 284.8 437.488C284.672 437.317 284.608 437.099 284.608 436.832C284.608 435.925 285.328 435.472 286.768 435.472C287.611 435.472 288.405 435.632 289.152 435.952V434.464C288.853 434.357 288.443 434.267 287.92 434.192C287.397 434.107 286.907 434.064 286.448 434.064C285.232 434.064 284.32 434.304 283.712 434.784C283.115 435.264 282.816 435.952 282.816 436.848C282.816 437.36 282.901 437.787 283.072 438.128C283.243 438.459 283.52 438.747 283.904 438.992C284.288 439.227 284.821 439.445 285.504 439.648C286.379 439.883 286.997 440.117 287.36 440.352C287.723 440.587 287.904 440.917 287.904 441.344C287.904 442.283 287.205 442.752 285.808 442.752C284.901 442.752 283.968 442.549 283.008 442.144V443.632C283.797 443.984 284.784 444.16 285.968 444.16ZM293.396 439.984H297.7V444H299.428V434.208H297.7V438.208H293.396V434.208H291.636V444H293.396V439.984ZM303.427 434.208H301.667V444H303.427V434.208ZM310.451 444C311.411 444 312.137 443.765 312.627 443.296C313.129 442.816 313.379 442.101 313.379 441.152C313.379 440.533 313.251 440.048 312.995 439.696C312.75 439.344 312.387 439.099 311.907 438.96C312.259 438.768 312.531 438.496 312.723 438.144C312.926 437.781 313.027 437.349 313.027 436.848C313.027 435.088 312.105 434.208 310.259 434.208H305.651V444H310.451ZM309.827 435.552C310.403 435.552 310.803 435.675 311.027 435.92C311.262 436.155 311.379 436.517 311.379 437.008C311.379 437.925 310.91 438.384 309.971 438.384H307.299V435.552H309.827ZM309.923 439.616C310.478 439.616 310.894 439.728 311.171 439.952C311.449 440.165 311.587 440.539 311.587 441.072C311.587 441.627 311.465 442.032 311.219 442.288C310.974 442.533 310.585 442.656 310.051 442.656H307.299V439.616H309.923Z" fill="#E6AE1F"/>
<path d="M320.385 442.272C320.438 442.272 320.476 442.331 320.497 442.448C320.529 442.565 320.545 442.805 320.545 443.168C320.545 443.509 320.529 443.733 320.497 443.84C320.476 443.947 320.438 444 320.385 444H319.905C319.052 444 318.406 443.749 317.969 443.248C317.532 442.747 317.313 442.037 317.313 441.12V433.664H318.961V441.008C318.961 441.445 319.041 441.765 319.201 441.968C319.372 442.171 319.638 442.272 320.001 442.272H320.385ZM322.311 442.272C322.652 442.272 322.924 442.187 323.127 442.016C323.34 441.835 323.447 441.584 323.447 441.264V438.688H325.111V441.2C325.111 441.915 325.479 442.272 326.215 442.272H326.759C326.865 442.272 326.919 442.565 326.919 443.152C326.919 443.717 326.865 444 326.759 444H326.151C325.201 444 324.572 443.712 324.263 443.136C323.889 443.712 323.239 444 322.311 444H320.391C320.284 444 320.231 443.723 320.231 443.168C320.231 442.571 320.284 442.272 320.391 442.272H322.311ZM321.063 447.44V445.872H322.983V447.44H321.063ZM328.686 442.272C329.027 442.272 329.299 442.187 329.502 442.016C329.715 441.835 329.822 441.584 329.822 441.264V438.688H331.486V441.2C331.486 441.915 331.854 442.272 332.59 442.272H333.134C333.24 442.272 333.294 442.565 333.294 443.152C333.294 443.717 333.24 444 333.134 444H332.526C331.576 444 330.947 443.712 330.638 443.136C330.264 443.712 329.614 444 328.686 444H326.766C326.659 444 326.606 443.723 326.606 443.168C326.606 442.571 326.659 442.272 326.766 442.272H328.686ZM330.094 445.872V447.408H325.742V445.872H330.094ZM334.405 442.272C334.842 442.272 335.173 442.176 335.397 441.984C335.621 441.781 335.733 441.499 335.733 441.136V438.688H337.397V441.136C337.397 441.893 337.829 442.272 338.693 442.272C339.13 442.272 339.461 442.176 339.685 441.984C339.909 441.781 340.021 441.499 340.021 441.136V438.688H341.685V441.136C341.685 441.499 341.786 441.781 341.989 441.984C342.191 442.176 342.495 442.272 342.901 442.272C343.317 442.272 343.626 442.176 343.829 441.984C344.042 441.781 344.149 441.499 344.149 441.136V438.688H345.797V441.12C345.797 442.027 345.541 442.736 345.029 443.248C344.517 443.749 343.807 444 342.901 444C341.813 444 341.109 443.691 340.789 443.072C340.373 443.691 339.674 444 338.693 444C338.095 444 337.621 443.925 337.269 443.776C336.917 443.616 336.661 443.381 336.501 443.072C336.085 443.691 335.386 444 334.405 444H333.141C333.034 444 332.981 443.723 332.981 443.168C332.981 442.571 333.034 442.272 333.141 442.272H334.405ZM341.637 432.976V434.464H339.957V432.976H341.637ZM342.965 435.328V436.864H338.613V435.328H342.965Z" fill="#E6AE1F"/>
</g>
<path d="M285.229 471.144C286.05 471.144 286.69 470.909 287.149 470.44C287.618 469.981 287.853 469.331 287.853 468.488V463.688H289.517V466.152C289.517 466.899 289.922 467.272 290.733 467.272H290.957C291.064 467.272 291.117 467.571 291.117 468.168C291.117 468.723 291.064 469 290.957 469H290.733C290.466 469 290.221 468.963 289.997 468.888C289.784 468.803 289.624 468.691 289.517 468.552V468.648C289.496 469.48 289.304 470.216 288.941 470.856C288.589 471.496 288.093 471.992 287.453 472.344C286.824 472.696 286.088 472.872 285.245 472.872H284.781L284.637 471.144H285.229ZM293.945 467.272C294.286 467.272 294.558 467.187 294.761 467.016C294.974 466.835 295.081 466.584 295.081 466.264V463.688H296.729V466.2C296.729 466.915 297.097 467.272 297.833 467.272H298.393C298.5 467.272 298.553 467.565 298.553 468.152C298.553 468.717 298.5 469 298.393 469H297.769C296.83 469 296.206 468.712 295.897 468.136C295.524 468.712 294.873 469 293.945 469H290.953C290.846 469 290.793 468.723 290.793 468.168C290.793 467.571 290.846 467.272 290.953 467.272H293.945ZM296.825 460.296V461.832H292.473V460.296H296.825ZM302.791 466.312C302.791 467.155 302.54 467.816 302.039 468.296C301.537 468.765 300.865 469 300.023 469H298.391C298.284 469 298.231 468.723 298.231 468.168C298.231 467.571 298.284 467.272 298.391 467.272H300.023C300.353 467.272 300.62 467.187 300.823 467.016C301.025 466.835 301.127 466.584 301.127 466.264V463.688H302.791V466.312ZM303.223 460.328V461.864H298.871V460.328H303.223ZM311.815 459.064L308.535 459.576V461.192L310.055 460.936V469H311.815V459.064ZM315.69 467.832H314.186L313.754 470.824H315.002L315.69 467.832ZM319.668 467.512C319.806 467.16 320.004 466.84 320.26 466.552C320.516 466.264 320.878 465.901 321.348 465.464L321.636 465.192C322.094 464.776 322.446 464.419 322.692 464.12C322.948 463.811 323.145 463.48 323.284 463.128C323.422 462.776 323.492 462.371 323.492 461.912C323.492 461.027 323.214 460.333 322.66 459.832C322.116 459.32 321.321 459.064 320.276 459.064C319.806 459.064 319.337 459.107 318.868 459.192C318.398 459.277 317.998 459.389 317.668 459.528V461.16C318.404 460.851 319.15 460.696 319.908 460.696C320.516 460.696 320.969 460.829 321.268 461.096C321.566 461.363 321.716 461.731 321.716 462.2C321.716 462.509 321.657 462.792 321.54 463.048C321.422 463.304 321.23 463.581 320.964 463.88C320.708 464.168 320.318 464.552 319.796 465.032C319.188 465.576 318.681 466.083 318.276 466.552C317.881 467.011 317.566 467.512 317.332 468.056V469H323.588V467.512H319.668ZM327.926 469.16C329.089 469.16 329.98 468.877 330.598 468.312C331.217 467.747 331.526 466.973 331.526 465.992C331.526 464.947 331.26 464.189 330.726 463.72C330.204 463.251 329.404 463.016 328.326 463.016H326.822L326.966 460.696H330.774L330.902 459.208H325.478L325.222 463.352V464.328H327.942C328.614 464.328 329.084 464.456 329.35 464.712C329.628 464.957 329.766 465.363 329.766 465.928C329.766 466.493 329.59 466.925 329.238 467.224C328.886 467.523 328.369 467.672 327.686 467.672C327.302 467.672 326.892 467.629 326.454 467.544C326.017 467.459 325.622 467.341 325.27 467.192V468.68C325.601 468.829 326.017 468.947 326.518 469.032C327.02 469.117 327.489 469.16 327.926 469.16ZM339.271 466.904H340.183V465.352H339.271V459.208H337.735L332.903 465.576V466.904H337.511V469H339.271V466.904ZM337.783 465.432H334.583L337.783 461.32V465.432Z" fill="#2E3133"/>
<path d="M285.867 483.497C286.161 483.033 286.839 483.033 287.133 483.497L290.531 488.848C290.849 489.347 290.49 490 289.898 490H283.102C282.51 490 282.151 489.347 282.469 488.848L285.867 483.497Z" fill="#18CE2A"/>
<path d="M299.947 490.12C300.995 490.12 301.771 489.8 302.275 489.16C302.787 488.52 303.043 487.604 303.043 486.412C303.043 485.132 302.799 484.168 302.311 483.52C301.823 482.872 301.035 482.548 299.947 482.548C298.851 482.548 298.055 482.872 297.559 483.52C297.071 484.168 296.827 485.132 296.827 486.412C296.827 487.604 297.083 488.52 297.595 489.16C298.107 489.8 298.891 490.12 299.947 490.12ZM299.947 488.884C299.331 488.884 298.879 488.668 298.591 488.236C298.311 487.796 298.171 487.188 298.171 486.412C298.171 485.524 298.303 484.864 298.567 484.432C298.839 483.992 299.299 483.772 299.947 483.772C300.595 483.772 301.051 483.992 301.315 484.432C301.587 484.864 301.723 485.524 301.723 486.412C301.723 487.188 301.579 487.796 301.291 488.236C301.011 488.668 300.563 488.884 299.947 488.884ZM305.336 490C305.08 490 304.888 489.936 304.76 489.808C304.64 489.68 304.58 489.472 304.58 489.184C304.58 488.896 304.64 488.696 304.76 488.584C304.88 488.464 305.072 488.404 305.336 488.404C305.6 488.404 305.792 488.464 305.912 488.584C306.04 488.696 306.104 488.896 306.104 489.184C306.104 489.472 306.04 489.68 305.912 489.808C305.784 489.936 305.592 490 305.336 490ZM309.36 488.884C309.464 488.62 309.612 488.38 309.804 488.164C309.996 487.948 310.268 487.676 310.62 487.348L310.836 487.144C311.18 486.832 311.444 486.564 311.628 486.34C311.82 486.108 311.968 485.86 312.072 485.596C312.176 485.332 312.228 485.028 312.228 484.684C312.228 484.02 312.02 483.5 311.604 483.124C311.196 482.74 310.6 482.548 309.816 482.548C309.464 482.548 309.112 482.58 308.76 482.644C308.408 482.708 308.108 482.792 307.86 482.896V484.12C308.412 483.888 308.972 483.772 309.54 483.772C309.996 483.772 310.336 483.872 310.56 484.072C310.784 484.272 310.896 484.548 310.896 484.9C310.896 485.132 310.852 485.344 310.764 485.536C310.676 485.728 310.532 485.936 310.332 486.16C310.14 486.376 309.848 486.664 309.456 487.024C309 487.432 308.62 487.812 308.316 488.164C308.02 488.508 307.784 488.884 307.608 489.292V490H312.3V488.884H309.36ZM315.554 490.12C316.426 490.12 317.094 489.908 317.558 489.484C318.022 489.06 318.254 488.48 318.254 487.744C318.254 486.96 318.054 486.392 317.654 486.04C317.262 485.688 316.662 485.512 315.854 485.512H314.726L314.834 483.772H317.69L317.786 482.656H313.718L313.526 485.764V486.496H315.566C316.07 486.496 316.422 486.592 316.622 486.784C316.83 486.968 316.934 487.272 316.934 487.696C316.934 488.12 316.802 488.444 316.538 488.668C316.274 488.892 315.886 489.004 315.374 489.004C315.086 489.004 314.778 488.972 314.45 488.908C314.122 488.844 313.826 488.756 313.562 488.644V489.76C313.81 489.872 314.122 489.96 314.498 490.024C314.874 490.088 315.226 490.12 315.554 490.12ZM323.839 486.124C323.839 486.932 323.943 487.604 324.151 488.14C324.359 488.668 324.735 489.196 325.279 489.724L324.547 490.42C323.851 489.828 323.351 489.196 323.047 488.524C322.751 487.852 322.603 487.052 322.603 486.124C322.603 485.196 322.751 484.396 323.047 483.724C323.351 483.052 323.851 482.42 324.547 481.828L325.279 482.536C324.735 483.064 324.359 483.592 324.151 484.12C323.943 484.648 323.839 485.316 323.839 486.124ZM329.252 482.548L326.792 482.932V484.144L327.932 483.952V490H329.252V482.548ZM332.722 490.12C333.594 490.12 334.262 489.908 334.726 489.484C335.19 489.06 335.422 488.48 335.422 487.744C335.422 486.96 335.222 486.392 334.822 486.04C334.43 485.688 333.83 485.512 333.022 485.512H331.894L332.002 483.772H334.858L334.954 482.656H330.886L330.694 485.764V486.496H332.734C333.238 486.496 333.59 486.592 333.79 486.784C333.998 486.968 334.102 487.272 334.102 487.696C334.102 488.12 333.97 488.444 333.706 488.668C333.442 488.892 333.054 489.004 332.542 489.004C332.254 489.004 331.946 488.972 331.618 488.908C331.29 488.844 330.994 488.756 330.73 488.644V489.76C330.978 489.872 331.29 489.96 331.666 490.024C332.042 490.088 332.394 490.12 332.722 490.12ZM339.791 490.12C340.839 490.12 341.615 489.8 342.119 489.16C342.631 488.52 342.887 487.604 342.887 486.412C342.887 485.132 342.643 484.168 342.155 483.52C341.667 482.872 340.879 482.548 339.791 482.548C338.695 482.548 337.899 482.872 337.403 483.52C336.915 484.168 336.671 485.132 336.671 486.412C336.671 487.604 336.927 488.52 337.439 489.16C337.951 489.8 338.735 490.12 339.791 490.12ZM339.791 488.884C339.175 488.884 338.723 488.668 338.435 488.236C338.155 487.796 338.015 487.188 338.015 486.412C338.015 485.524 338.147 484.864 338.411 484.432C338.683 483.992 339.143 483.772 339.791 483.772C340.439 483.772 340.895 483.992 341.159 484.432C341.431 484.864 341.567 485.524 341.567 486.412C341.567 487.188 341.423 487.796 341.135 488.236C340.855 488.668 340.407 488.884 339.791 488.884ZM345.863 486.124C345.863 485.316 345.759 484.648 345.551 484.12C345.343 483.592 344.967 483.064 344.423 482.536L345.155 481.828C345.851 482.42 346.347 483.052 346.643 483.724C346.947 484.396 347.099 485.196 347.099 486.124C347.099 487.052 346.947 487.852 346.643 488.524C346.347 489.196 345.851 489.828 345.155 490.42L344.423 489.724C344.967 489.196 345.343 488.668 345.551 488.14C345.759 487.604 345.863 486.932 345.863 486.124Z" fill="#18CE2A"/>
<defs>
<clipPath id="clip0_29_1243">
<rect x="28" y="28" width="45" height="24" rx="6" fill="white"/>
</clipPath>
<clipPath id="clip1_29_1243">
<rect x="261" y="197" width="108" height="24" rx="6" fill="white"/>
</clipPath>
<clipPath id="clip2_29_1243">
<rect x="64" y="198" width="108" height="24" rx="6" fill="white"/>
</clipPath>
<clipPath id="clip3_29_1243">
<rect x="57" y="429" width="121" height="24" rx="6" fill="white"/>
</clipPath>
<clipPath id="clip4_29_1243">
<rect x="276" y="429" width="77" height="24" rx="6" fill="white"/>
</clipPath>
</defs>
</svg>
