<svg width="89" height="88" viewBox="0 0 89 88" fill="none" xmlns="http://www.w3.org/2000/svg">
<g id="Group">
<path id="Vector" d="M44.5 88C68.8005 88 88.5 68.3005 88.5 44C88.5 19.6995 68.8005 0 44.5 0C20.1995 0 0.5 19.6995 0.5 44C0.5 68.3005 20.1995 88 44.5 88Z" fill="#F30504"/>
<g id="Group 938">
<path id="Path 8575" d="M61.7321 47.3821C61.6963 47.5494 61.2182 48.0393 60.7283 48.4098C59.3062 49.4494 56.7489 50.4293 54.1558 50.8834C52.674 51.1463 51.2041 51.1941 50.762 50.979C50.4752 50.8356 50.4274 50.7161 50.5349 50.3457C50.75 49.5689 51.4551 48.7205 52.5545 47.9318C53.1161 47.5255 55.3747 46.1512 56.4263 45.5776C58.159 44.6216 59.5691 44.06 60.5132 43.9285C60.8119 43.8926 61.1704 43.8807 61.2899 43.9285C61.4811 44.0002 61.6843 44.5499 61.768 45.2071C61.8038 45.5537 61.7919 47.1072 61.7321 47.3821Z" fill="black"/>
<path id="Path 8576" d="M37.39 50.7998C37.3302 50.9193 37.0196 51.0627 36.6611 51.1105C36.3145 51.1583 35.239 51.1344 34.6295 51.0627C32.4427 50.7759 30.1124 50.1067 28.4155 49.2702C27.4595 48.8041 26.7784 48.3381 26.2765 47.8362L25.9897 47.5374L25.9538 47.1431C25.906 46.4619 25.918 45.3864 25.9897 45.004C26.0375 44.6814 26.157 44.3707 26.3123 44.0958C26.3681 44.0241 26.5195 43.9883 26.7664 43.9883C27.2205 43.9883 27.6029 44.06 28.2243 44.2512C29.491 44.6455 31.3911 45.5896 33.6855 46.9758C35.5856 48.111 36.3026 48.6727 36.8523 49.4375C37.2227 49.9155 37.4737 50.5847 37.3781 50.7878L37.39 50.7998Z" fill="black"/>
<path id="Path 8577" d="M52.0168 65.1877C52.0168 65.1877 51.8973 65.7135 51.7419 66.2991C51.5866 66.8846 51.4671 67.3626 51.4671 67.3865C51.3476 67.3865 51.252 67.4104 51.1325 67.3865H50.7979L50.3438 68.462C50.0929 69.0476 49.8658 69.5973 49.8419 69.6809L49.7822 69.8243L49.567 69.4778L49.3519 69.1312V66.2751L49.2683 66.2991C49.089 66.3349 47.8462 66.5022 47.2965 66.562C45.038 66.789 42.7555 66.7412 40.5089 66.4185C40.1504 66.3707 39.8397 66.3229 39.8278 66.3349C39.8278 66.3349 39.8278 67.0041 39.8517 67.8167L39.8875 69.2866L39.7083 69.5495C39.6127 69.6929 39.5171 69.8124 39.5171 69.8243C39.4812 69.8602 39.3856 69.6929 39.1466 69.2149C38.8837 68.7249 38.7045 68.1872 38.573 67.6494L38.5013 67.3507L38.1787 67.3745L37.856 67.4104L37.7724 67.028C37.7365 66.8249 37.6768 66.5022 37.6529 66.323L37.617 65.9884L37.3541 65.7493C37.1988 65.6179 37.0434 65.4865 37.0076 65.4626C36.9598 65.4267 36.9359 65.343 36.9359 65.2833V65.1638H38.2265L39.5171 65.1877L39.5529 65.3191L39.5888 65.4506L40.0309 65.4745C40.2819 65.4745 41.0586 65.5103 41.7637 65.5223L43.0543 65.5582L43.3889 65.0443L43.7354 64.5305H44.1656V63.4549L44.1417 62.3794L43.5681 62.1285C41.7398 61.3278 40.6643 60.4077 40.258 59.2844C40.1743 59.0573 40.1743 58.9737 40.1504 57.946C40.1504 56.9183 40.1504 56.8346 40.2102 56.6076C40.3536 56.0937 40.7599 55.6874 41.2737 55.556C41.453 55.5082 41.919 55.5082 44.3568 55.5082H47.2248L47.5475 55.6755C47.9299 55.8667 48.1092 55.9981 48.3243 56.2849C48.5752 56.6195 48.6469 56.8705 48.6469 57.5038C48.6469 58.4001 48.5871 59.1768 48.4915 59.4875C48.3601 59.9058 48.145 60.3121 47.894 60.6706C47.3802 61.3278 46.4361 61.997 45.5757 62.2958L45.3248 62.3914V63.4788L45.3487 64.5663L45.5757 64.5902L45.8028 64.6141L46.1135 65.0801L46.4122 65.5462H47.7985C48.5633 65.5462 49.2325 65.5462 49.2922 65.5701C49.3998 65.594 49.4117 65.5701 49.5193 65.4028L49.6387 65.2116H50.8218C51.7061 65.1757 51.981 65.1877 51.981 65.2116L52.0168 65.1877Z" fill="black"/>
<path id="Path 8578" d="M46.5675 68.1512C46.3763 68.2707 46.2329 68.3184 46.209 68.2945C46.1731 68.2945 46.0297 68.1631 45.8744 68.0436L45.5995 67.8166L45.3127 68.1272C44.6794 68.8084 44.6674 68.8443 44.4762 68.8562C44.1894 68.8921 44.1297 68.8323 43.7712 68.3065C43.58 68.0436 43.4366 67.8166 43.4366 67.8166C43.4366 67.8166 43.3051 67.7927 43.1498 67.7807L42.863 67.7448L42.7315 68.0197L42.6001 68.2945L42.361 68.2229C42.1698 68.1631 41.9906 68.0914 41.8114 68.0077L41.5006 67.8524V67.2668H44.2492L46.9977 67.2908V67.5656C47.0216 67.9002 47.0335 67.8882 46.5794 68.1392L46.5675 68.1512Z" fill="black"/>
<path id="Path 8579" d="M72.3915 55.5437C72.3915 55.5437 72.3915 55.4242 72.3676 55.3167C69.894 55.0538 62.8076 54.8865 56.247 60.3118C56.247 60.3118 54.1319 50.5964 44.2134 50.5964C34.2949 50.5964 30.6142 60.3118 30.6142 60.3118C25.0575 54.3248 17.6126 54.767 14.9358 55.1613C14.9358 55.2211 14.9358 55.2928 14.9358 55.3525C14.8521 56.8463 14.9 57.5633 15.139 58.5073C15.9157 61.4471 18.3057 64.6975 22.0341 67.8762C28.1645 73.0864 36.4698 76.8387 42.7555 77.2808C49.316 77.723 58.9955 73.887 65.4366 68.2944C66.4523 67.3982 67.3964 66.4422 68.2927 65.4384C68.938 64.6975 69.882 63.4188 69.8103 63.4188C69.7864 63.4188 69.8103 63.3949 69.8462 63.383C69.882 63.3591 69.9059 63.3352 69.882 63.3113C69.882 63.3113 69.882 63.2754 69.9179 63.2635C69.9537 63.2635 69.9657 63.2276 69.9537 63.2157C69.9537 63.1918 69.9537 63.1798 69.9896 63.1679C70.0254 63.1679 70.0254 63.132 70.0254 63.1081C70.0254 63.0842 70.0254 63.0723 70.0493 63.0723C70.0732 63.0723 70.0852 63.0364 70.0852 63.0245C70.0852 63.0125 70.1091 62.9767 70.121 62.9767C70.133 62.9767 70.1569 62.9528 70.1569 62.9408C70.1927 62.8572 70.2405 62.7735 70.2883 62.7018C70.4436 62.4628 71.0651 61.3634 71.1487 61.1722C71.7343 59.8338 72.1047 58.6508 72.284 57.4677C72.3437 56.8941 72.4035 55.8545 72.3557 55.6035L72.3915 55.5437ZM46.5675 68.151C46.3763 68.2705 46.2329 68.3183 46.209 68.2944C46.1732 68.2944 46.0298 68.163 45.8744 68.0435L45.5996 67.8164L45.3128 68.1271C44.6794 68.8083 44.6675 68.8441 44.4763 68.8561C44.1895 68.8919 44.1297 68.8322 43.7712 68.3064C43.58 68.0435 43.4366 67.8164 43.4366 67.8164C43.4366 67.8164 43.3052 67.7925 43.1498 67.7806L42.863 67.7447L42.7315 68.0196L42.6001 68.2944L42.3611 68.2227C42.1699 68.163 41.9907 68.0913 41.8114 68.0076L41.5007 67.8523V67.2667H44.2492L46.9977 67.2906V67.5655C47.0216 67.9001 47.0336 67.8881 46.5795 68.1391L46.5675 68.151ZM51.7299 66.2868C51.5746 66.8724 51.4551 67.3504 51.4551 67.3743C51.3475 67.3743 51.24 67.3982 51.1205 67.3743H50.7859L50.3437 68.4617C50.0928 69.0473 49.8657 69.597 49.8418 69.6806L49.7821 69.824L49.567 69.4775L49.3519 69.1309V66.2749L49.2682 66.2988C49.089 66.3346 47.8462 66.5019 47.2965 66.5617C45.0379 66.7887 42.7555 66.7409 40.5089 66.4183C40.1504 66.3705 39.8396 66.3227 39.8277 66.3346C39.8277 66.3346 39.8277 67.0038 39.8516 67.8164L39.8875 69.2863L39.7082 69.5492C39.6126 69.6926 39.517 69.8121 39.517 69.824C39.4811 69.8599 39.3855 69.6926 39.1465 69.2146C38.8836 68.7246 38.7044 68.1869 38.573 67.6491L38.5013 67.3504L38.1786 67.3743L37.8559 67.4101L37.7723 67.0277C37.7364 66.8246 37.6767 66.5019 37.6528 66.3227L37.6169 65.9881L37.354 65.7491C37.1987 65.6176 37.0434 65.4862 37.0075 65.4623C36.9597 65.4264 36.9358 65.3428 36.9358 65.283V65.1635H38.2264L39.517 65.1874L39.5529 65.3189L39.5887 65.4503L40.0309 65.4742C40.2818 65.4742 41.0585 65.5101 41.7636 65.522L43.0542 65.5579L43.3888 65.044L43.7354 64.5302H44.1656V63.4547L44.1417 62.3792L43.5681 62.1282C41.7397 61.3276 40.6642 60.4074 40.2579 59.2841C40.1743 59.0571 40.1743 58.9734 40.1504 57.9457C40.1504 56.918 40.1504 56.8343 40.2101 56.6073C40.3535 56.0934 40.7598 55.6871 41.2736 55.5557C41.4529 55.5079 41.919 55.5079 44.3568 55.5079H47.2248L47.5474 55.6752C47.9298 55.8664 48.1091 55.9978 48.3242 56.2846C48.5751 56.6192 48.6468 56.8702 48.6468 57.5035C48.6468 58.3998 48.5871 59.1766 48.4915 59.4873C48.36 59.9055 48.1449 60.3118 47.894 60.6703C47.3801 61.3276 46.4361 61.9968 45.5757 62.2955L45.3247 62.3911V63.4786L45.3486 64.566L45.5757 64.5899L45.8027 64.6138L46.1134 65.0799L46.4122 65.5459H47.7984C48.5632 65.5459 49.2324 65.5459 49.2921 65.5698C49.3997 65.5937 49.4116 65.5698 49.5192 65.4025L49.6387 65.2113H50.8217C51.7419 65.2113 52.0048 65.2113 52.0048 65.2472C51.9689 65.2472 51.8375 65.7371 51.6821 66.3227L51.7299 66.2868Z" fill="white"/>
<path id="Path 8582" d="M72.3078 54.4923C72.2839 54.0263 72.2481 53.381 72.2122 53.0583C71.7701 48.3739 70.5751 44.538 68.2926 40.4749C68.197 40.3196 68.1134 40.1642 68.0656 40.0447C68.0417 40.0089 68.0297 39.985 68.0297 39.9611C68.3524 39.0051 69.6669 34.9779 70.7065 30.3891C72.1166 24.1512 73.0248 16.8617 70.2763 14.6629C70.2763 14.6629 65.5202 14.3163 59.1628 20.5543C57.442 22.2751 55.8526 24.1512 54.4545 26.1469L54.0123 26.0035C51.455 25.167 48.7902 24.6531 46.1253 24.4739C45.3247 24.4141 42.3133 24.4141 41.3334 24.4739C38.3698 24.6651 36.0992 25.1192 33.518 26.0154C33.4105 26.0513 33.3268 26.0871 33.2312 26.123C31.7733 24.1393 30.1481 22.2751 28.3676 20.5781C21.7473 14.3044 16.8119 14.6748 16.8119 14.6748C13.8961 16.9334 14.8879 24.5575 16.3936 31.0105C17.3855 35.2767 18.6044 39.029 19.0585 40.3793C19.0227 40.451 18.9868 40.5347 18.939 40.6064C16.5371 45.482 15.2345 50.1784 14.9238 55.1854C17.6245 54.7911 25.0455 54.3489 30.6142 60.3359C30.6142 60.3359 34.2948 50.6205 44.2133 50.6205C54.1318 50.6205 56.247 60.3359 56.247 60.3359C62.8195 54.9106 69.8939 55.0898 72.3676 55.3408C72.3676 55.1376 72.3317 54.8269 72.3198 54.5162L72.3078 54.4923ZM20.9944 36.4597C20.9944 36.4597 17.1346 26.8041 18.1264 21.2832C18.2937 20.3511 18.6044 19.5385 19.0824 18.9171C19.0824 18.9171 23.4681 19.3473 30.5305 27.1985C30.5305 27.1985 29.1921 27.8438 27.3877 29.23C27.3877 29.23 27.3877 29.23 27.3638 29.23C25.4159 30.7237 22.9064 33.1018 20.9944 36.4358V36.4597ZM37.3898 50.8117C37.3301 50.9312 37.0194 51.0746 36.6609 51.1224C36.3143 51.1702 35.2388 51.1463 34.6294 51.0746C32.4425 50.7878 30.1123 50.1186 28.4154 49.2821C27.4594 48.8161 26.7782 48.35 26.2763 47.8481L25.9895 47.5494L25.9537 47.155C25.9059 46.4739 25.9178 45.3984 25.9895 45.016C26.0373 44.6933 26.1568 44.3826 26.3122 44.1077C26.3679 44.036 26.5193 44.0002 26.7663 44.0002C27.2204 44.0002 27.6028 44.0719 28.2242 44.2631C29.4909 44.6574 31.3909 45.6015 33.6854 46.9877C35.5854 48.123 36.3024 48.6846 36.8521 49.4494C37.2226 49.9274 37.4735 50.5966 37.3779 50.7998L37.3898 50.8117ZM61.7321 47.394C61.6962 47.5613 61.2182 48.0513 60.7282 48.4217C59.3062 49.4614 56.7489 50.4413 54.1557 50.8954C52.6739 51.1583 51.2041 51.2061 50.7619 50.991C50.4751 50.8476 50.4273 50.7281 50.5349 50.3576C50.75 49.5809 51.455 48.7324 52.5544 47.9437C53.1161 47.5374 55.3747 46.1632 56.4263 45.5896C58.159 44.6335 59.5691 44.0719 60.5131 43.9404C60.8119 43.9046 61.1704 43.8926 61.2899 43.9404C61.4811 44.0121 61.6843 44.5619 61.7679 45.2191C61.8038 45.5657 61.7918 47.1191 61.7321 47.394ZM60.0232 29.2419H59.9993C58.2665 27.8438 56.964 27.1985 56.964 27.1985C63.7874 19.3473 68.0178 18.9171 68.0178 18.9171C68.4838 19.5504 68.7826 20.3511 68.9499 21.2832C69.9059 26.8041 66.1775 36.4717 66.1775 36.4717C64.612 33.6873 62.5207 31.2376 60.0232 29.2539V29.2419Z" fill="#FFA409"/>
<g id="Group 934">
<g id="Group 933">
<g id="Group 932">
<path id="Path 8585" d="M68.9497 21.2711C68.1491 21.1636 64.337 21.1517 60.0111 29.2418H59.9872C58.2545 27.8437 56.9519 27.1984 56.9519 27.1984C63.7754 19.3472 68.0057 18.917 68.0057 18.917C68.4837 19.5503 68.7824 20.351 68.9497 21.2831V21.2711Z" fill="#FF9300"/>
</g>
<path id="Path 8586" d="M66.1895 36.4597C64.624 33.6753 62.5328 31.2255 60.0233 29.2418C64.3372 21.1517 68.1373 21.1756 68.9619 21.2712C69.9179 26.804 66.1895 36.4597 66.1895 36.4597Z" fill="#FF8300"/>
<path id="Path 8587" d="M69.1054 21.2952C69.1054 21.2952 68.9978 21.2713 68.95 21.2594L69.1054 21.2952Z" fill="#FF8300"/>
</g>
</g>
<g id="Group 937">
<g id="Group 936">
<g id="Group 935">
<path id="Path 8590" d="M30.5306 27.1866C30.5306 27.1866 29.1922 27.8319 27.3877 29.2181C27.3877 29.2181 27.3877 29.2181 27.3638 29.2181C22.8945 21.116 18.951 21.1518 18.1025 21.2474C18.2698 20.3153 18.5805 19.5027 19.0585 18.8813C19.0585 18.8813 23.4442 19.3115 30.5186 27.1627L30.5306 27.1866Z" fill="#FF9300"/>
</g>
<path id="Path 8591" d="M27.3758 29.23C25.416 30.7357 22.9185 33.1018 20.9945 36.4479C20.9945 36.4479 17.1347 26.7922 18.1265 21.2594C18.963 21.1518 22.9065 21.1399 27.3878 29.23H27.3758Z" fill="#FF8300"/>
<path id="Path 8592" d="M18.1265 21.2715C18.1265 21.2715 18.007 21.2954 17.9592 21.3073L18.1265 21.2715Z" fill="#FF8300"/>
</g>
</g>
<path id="Path 8593" d="M55.7332 41.8132C55.7332 41.8132 52.4231 42.0164 52.8413 39.4352C53.2596 36.854 55.8408 36.5433 56.5578 36.6508C57.2867 36.7584 60.1786 37.7861 59.6528 39.961C59.139 42.1359 58.41 41.7176 58.0037 41.8252C57.5855 41.9327 55.7332 41.8252 55.7332 41.8252V41.8132Z" fill="white"/>
<path id="Path 8594" d="M31.3431 41.8132C31.3431 41.8132 28.0329 42.0164 28.4512 39.4352C28.8694 36.854 31.4506 36.5433 32.1676 36.6508C32.8966 36.7584 35.7885 37.7861 35.2627 39.961C34.7488 42.1359 34.0199 41.7176 33.6136 41.8252C33.1954 41.9327 31.3431 41.8252 31.3431 41.8252V41.8132Z" fill="white"/>
</g>
</g>
</svg>
