<svg width="154" height="41" viewBox="0 0 154 41" fill="none" xmlns="http://www.w3.org/2000/svg">
<path d="M151.725 39.0831C144.949 31.1162 139.278 27.396 129.407 26.6778C120.493 26.0292 110.259 29.6474 101.585 32.1329C90.8457 35.2103 70.401 36.1203 66.189 21.5603C62.9184 10.2548 71.4092 -1.72561 81.8319 3.11477C85.85 4.98083 87.2196 11.6421 84.8155 15.8472C82.2189 20.3892 75.9467 21.9558 71.67 22.5474C60.1843 24.1362 54.256 11.3014 44.4557 7.96048C30.0692 3.86121 10.0868 19.5264 2.16142 25.1583C1.48255 25.6407 2.25544 21.9665 2.37065 21.0379C2.79301 17.6336 2.0107 19.0707 1.69136 21.6447C1.48597 23.3001 0.287179 26.7252 2.35561 26.0271C3.84791 25.5234 6.8268 25.7371 8.40695 25.9332" stroke="#2150F5" stroke-width="2.63175" stroke-linecap="round" stroke-dasharray="6.58 10.53"/>
</svg>
