<svg width="165" height="63" viewBox="0 0 165 63" fill="none" xmlns="http://www.w3.org/2000/svg">
<g style="mix-blend-mode:luminosity" opacity="0.5">
<path d="M1.79764 57.9622C3.89909 60.6494 7.75164 61.1887 10.5102 59.1819L18.3024 53.5134C19.4123 52.706 20.0689 51.4164 20.0689 50.0439V46.2691C20.0689 44.2341 22.5941 43.0945 24.6291 43.0945L25.5802 40.3968C26.0707 39.0055 26.06 37.4865 25.5499 36.1023L24.5519 33.3937C22.0818 33.3937 20.0689 31.378 20.0689 28.7953V21.2252C20.0689 18.0314 17.067 15.6882 13.9687 16.4636C11.7842 17.0102 10.2518 18.9733 10.2518 21.2253V44.1208C10.2518 45.9865 9.429 47.7572 8.00303 48.9603L0.0230103 55.6929L1.79764 57.9622Z" fill="#F53A21"/>
<path d="M24.6152 43.0945C26.2021 43.0945 27.709 42.8219 29.1069 42.3345C32.241 41.2417 35.9807 41.2553 39.118 42.3391C39.4777 42.4634 39.8447 42.5736 40.2184 42.6688C42.2118 43.1767 44.0735 41.7969 44.7575 39.8569C45.1254 38.8132 45.1254 37.675 44.7575 36.6313C44.0735 34.6913 42.0014 33.5868 40.4786 32.2038C39.5598 31.3694 38.9925 30.1617 38.9925 28.7953V21.1554C38.9925 17.9914 36.0261 15.665 32.9532 16.4191C30.7723 16.9544 29.2387 18.9097 29.2387 21.1554V28.7953C29.2387 31.378 27.1487 33.3937 24.6152 33.3937H24.5519L25.5499 36.1023C26.06 37.4865 26.0707 39.0055 25.5802 40.3968L24.6291 43.0945H24.6152ZM16.6487 4.82678C16.6487 6.89676 18.3267 8.57481 20.3967 8.57481H35.6878C37.7578 8.57481 39.4358 6.89676 39.4358 4.82678C39.4358 2.7568 37.7578 1.07874 35.6878 1.07874H20.3967C18.3267 1.07874 16.6487 2.7568 16.6487 4.82678Z" fill="#F53A21"/>
<path d="M42.496 39.3271C43.1526 41.5606 45.2024 43.0945 47.5304 43.0945C49.1123 43.0945 50.626 42.8236 52.0285 42.3391C55.1657 41.2553 58.9054 41.2417 62.0395 42.3345C63.4374 42.8219 64.9443 43.0945 66.5312 43.0945L68.1091 38.3701L68.7673 33.3937C66.2338 33.3937 61.9077 31.378 61.9077 28.7953V21.1554C61.9077 17.9914 58.9413 15.665 55.8685 16.4191C53.6875 16.9544 52.154 18.9097 52.154 21.1554V28.7953C52.154 31.378 50.0639 33.3937 47.5304 33.3937H46.6064C44.7967 33.3937 43.1732 34.5064 42.5202 36.1942C42.1719 37.0946 42.1307 38.0848 42.403 39.0109L42.496 39.3271ZM43.9203 53.1417C43.9203 55.2117 45.5984 56.8898 47.6683 56.8898H50.2733C51.6967 56.8898 52.8507 58.0437 52.8507 59.4672C52.8507 61.2139 54.5515 62.4548 56.2149 61.9216L57.8522 61.3967C59.4383 60.8882 60.5143 59.4134 60.5143 57.7478V55.7255C60.5143 52.2286 57.6795 49.3937 54.1825 49.3937H47.6683C45.5984 49.3937 43.9203 51.0718 43.9203 53.1417Z" fill="#1635A3"/>
<path d="M66.5312 43.0945H68.7673H70.984C78.901 43.0945 85.3613 36.6693 85.3613 28.7953V21.1554C85.3613 17.9914 82.3949 15.665 79.3221 16.4191C77.1411 16.9544 75.6076 18.9097 75.6076 21.1554V28.7953C75.6076 31.378 73.5175 33.3937 70.984 33.3937H68.7673L68.1091 38.3701L66.5312 43.0945ZM66.0438 53.1102C66.0438 55.1976 67.736 56.8898 69.8234 56.8898H78.985C81.0724 56.8898 82.7645 55.1976 82.7645 53.1102C82.7645 51.0229 81.0724 49.3307 78.985 49.3307H69.8234C67.736 49.3307 66.0438 51.0229 66.0438 53.1102Z" fill="#1635A3"/>
<path d="M87.6959 53.9085C89.6333 56.8101 93.5529 57.5977 96.4608 55.6697L99.7521 53.4874C100.938 52.7011 101.651 51.3729 101.651 49.95V44.9402C101.651 43.4459 104.226 42.5793 105.671 42.9614C106.407 43.1561 106.381 42.6142 106.634 41.8961L107.921 38.2441L106.111 32.8583C105.319 32.0709 101.651 31.378 101.651 28.7953V21.2252C101.651 18.0314 98.6491 15.6882 95.5508 16.4636C93.3663 17.0102 91.8339 18.9733 91.8339 21.2253V43.6838C91.8339 45.7956 90.781 47.7685 89.0266 48.944L85.817 51.0945L87.6959 53.9085Z" fill="#1635A3"/>
<path d="M106.197 43.0945H149.582C157.499 43.0945 164.023 36.6693 164.023 28.7953C164.023 20.9213 157.499 14.5591 149.582 14.5591H127.225L135.395 8.85598C137.55 7.35142 138.001 4.34598 136.382 2.2754C134.928 0.417251 132.302 -0.0342456 130.312 1.23195L112.265 12.7135C110.458 13.8629 109.364 15.8559 109.364 17.9973C109.364 21.456 112.168 24.2598 115.627 24.2598H149.582C152.116 24.2598 154.206 26.2756 154.206 28.7953C154.206 31.378 152.116 33.3937 149.582 33.3937L106.111 32.8583L106.902 35.2205L107.921 38.2441L106.197 43.0945Z" fill="#1635A3"/>
</g>
</svg>
